G04*
G04 #@! TF.GenerationSoftware,Altium Limited,Altium Designer,23.10.1 (27)*
G04*
G04 Layer_Physical_Order=1*
G04 Layer_Color=255*
%FSLAX25Y25*%
%MOIN*%
G70*
G04*
G04 #@! TF.SameCoordinates,BE9A1C7D-6EBF-47CB-866B-E429BD166B13*
G04*
G04*
G04 #@! TF.FilePolarity,Positive*
G04*
G01*
G75*
%ADD19R,0.06772X0.12598*%
%ADD20R,0.03381X0.03591*%
%ADD21R,0.04724X0.04724*%
G04:AMPARAMS|DCode=22|XSize=92.7mil|YSize=25.17mil|CornerRadius=12.58mil|HoleSize=0mil|Usage=FLASHONLY|Rotation=180.000|XOffset=0mil|YOffset=0mil|HoleType=Round|Shape=RoundedRectangle|*
%AMROUNDEDRECTD22*
21,1,0.09270,0.00000,0,0,180.0*
21,1,0.06753,0.02517,0,0,180.0*
1,1,0.02517,-0.03376,0.00000*
1,1,0.02517,0.03376,0.00000*
1,1,0.02517,0.03376,0.00000*
1,1,0.02517,-0.03376,0.00000*
%
%ADD22ROUNDEDRECTD22*%
G04:AMPARAMS|DCode=23|XSize=92.7mil|YSize=25.17mil|CornerRadius=12.59mil|HoleSize=0mil|Usage=FLASHONLY|Rotation=180.000|XOffset=0mil|YOffset=0mil|HoleType=Round|Shape=RoundedRectangle|*
%AMROUNDEDRECTD23*
21,1,0.09270,0.00000,0,0,180.0*
21,1,0.06753,0.02517,0,0,180.0*
1,1,0.02517,-0.03376,0.00000*
1,1,0.02517,0.03376,0.00000*
1,1,0.02517,0.03376,0.00000*
1,1,0.02517,-0.03376,0.00000*
%
%ADD23ROUNDEDRECTD23*%
%ADD24R,0.09270X0.02517*%
%ADD25R,0.03740X0.05512*%
%ADD26R,0.06127X0.05924*%
%ADD27R,0.03543X0.04134*%
%ADD28R,0.04953X0.03985*%
%ADD29R,0.04758X0.03985*%
G04:AMPARAMS|DCode=30|XSize=73.09mil|YSize=19.61mil|CornerRadius=9.8mil|HoleSize=0mil|Usage=FLASHONLY|Rotation=270.000|XOffset=0mil|YOffset=0mil|HoleType=Round|Shape=RoundedRectangle|*
%AMROUNDEDRECTD30*
21,1,0.07309,0.00000,0,0,270.0*
21,1,0.05348,0.01961,0,0,270.0*
1,1,0.01961,0.00000,-0.02674*
1,1,0.01961,0.00000,0.02674*
1,1,0.01961,0.00000,0.02674*
1,1,0.01961,0.00000,-0.02674*
%
%ADD30ROUNDEDRECTD30*%
%ADD31R,0.01961X0.07309*%
%ADD32R,0.28347X0.49606*%
%ADD34R,0.08465X0.07268*%
%ADD44C,0.01000*%
%ADD45C,0.04000*%
%ADD46C,0.00700*%
%ADD47C,0.03000*%
G04:AMPARAMS|DCode=48|XSize=62.99mil|YSize=62.99mil|CornerRadius=15.75mil|HoleSize=0mil|Usage=FLASHONLY|Rotation=180.000|XOffset=0mil|YOffset=0mil|HoleType=Round|Shape=RoundedRectangle|*
%AMROUNDEDRECTD48*
21,1,0.06299,0.03150,0,0,180.0*
21,1,0.03150,0.06299,0,0,180.0*
1,1,0.03150,-0.01575,0.01575*
1,1,0.03150,0.01575,0.01575*
1,1,0.03150,0.01575,-0.01575*
1,1,0.03150,-0.01575,-0.01575*
%
%ADD48ROUNDEDRECTD48*%
%ADD49C,0.06299*%
G04:AMPARAMS|DCode=50|XSize=70.87mil|YSize=70.87mil|CornerRadius=17.72mil|HoleSize=0mil|Usage=FLASHONLY|Rotation=0.000|XOffset=0mil|YOffset=0mil|HoleType=Round|Shape=RoundedRectangle|*
%AMROUNDEDRECTD50*
21,1,0.07087,0.03543,0,0,0.0*
21,1,0.03543,0.07087,0,0,0.0*
1,1,0.03543,0.01772,-0.01772*
1,1,0.03543,-0.01772,-0.01772*
1,1,0.03543,-0.01772,0.01772*
1,1,0.03543,0.01772,0.01772*
%
%ADD50ROUNDEDRECTD50*%
%ADD51C,0.07087*%
%ADD52C,0.13386*%
%ADD53C,0.02400*%
%ADD54C,0.02500*%
%ADD55C,0.02362*%
%ADD56C,0.02402*%
G36*
X143200Y179341D02*
Y167300D01*
X120700D01*
Y179700D01*
X142700Y179798D01*
X143200Y179341D01*
D02*
G37*
G36*
X56400Y167300D02*
X56200Y167100D01*
X34455D01*
X34103Y167455D01*
X34200Y179500D01*
X34300Y179600D01*
X56400D01*
Y167300D01*
D02*
G37*
G36*
X56700Y135200D02*
X34500D01*
Y147700D01*
X34600Y147800D01*
X56700D01*
Y135200D01*
D02*
G37*
G36*
X143400Y135100D02*
X121200D01*
Y147600D01*
X121300Y147700D01*
X143400D01*
Y135100D01*
D02*
G37*
G36*
X125500Y102800D02*
X107200D01*
Y110400D01*
X125500D01*
Y102800D01*
D02*
G37*
G36*
X70400D02*
X52700D01*
Y110800D01*
X70400D01*
Y102800D01*
D02*
G37*
G36*
X27100Y101800D02*
X25500D01*
X24300Y103000D01*
X8300D01*
Y110600D01*
X22900D01*
X23900Y111600D01*
X27100D01*
Y101800D01*
D02*
G37*
G36*
X153400Y110600D02*
X169000D01*
Y102600D01*
X153800D01*
X152300Y101100D01*
X150800Y102600D01*
Y111400D01*
X152600D01*
X153400Y110600D01*
D02*
G37*
G36*
X71000Y88020D02*
X61056Y87904D01*
X60700Y88256D01*
Y95700D01*
X71000D01*
Y88020D01*
D02*
G37*
G36*
X170500Y87900D02*
X159700D01*
Y95300D01*
X170500D01*
Y87900D01*
D02*
G37*
G36*
X18100D02*
X7100D01*
Y95600D01*
Y95700D01*
X18100D01*
Y87900D01*
D02*
G37*
G36*
X117100Y87841D02*
X117000Y87800D01*
X107600D01*
Y95400D01*
X117100D01*
Y87841D01*
D02*
G37*
G36*
X96500Y75500D02*
X95800Y74800D01*
Y73020D01*
X95319D01*
X94929Y72942D01*
X94598Y72721D01*
X94377Y72390D01*
X94317Y72088D01*
X94118Y71889D01*
X93897Y71558D01*
X93819Y71168D01*
X93897Y70778D01*
X94118Y70447D01*
X94448Y70226D01*
X94839Y70148D01*
X95229Y70226D01*
X95300Y70274D01*
X95800Y70006D01*
Y67500D01*
X91300D01*
Y80800D01*
X91800Y81300D01*
Y86200D01*
X93165D01*
Y84650D01*
X92679Y84164D01*
X92458Y83833D01*
X92380Y83443D01*
X92458Y83053D01*
X92679Y82722D01*
X93010Y82501D01*
X93400Y82424D01*
X93790Y82501D01*
X94121Y82722D01*
X94273Y82874D01*
X94507Y82718D01*
X94839Y82652D01*
X95170Y82718D01*
X95451Y82906D01*
X95639Y83187D01*
X95705Y83518D01*
X95639Y83850D01*
X95451Y84131D01*
X95205Y84378D01*
Y86200D01*
X96500D01*
Y75500D01*
D02*
G37*
G36*
X168900Y77904D02*
X156356Y77726D01*
X156000Y78077D01*
Y85300D01*
X168900D01*
Y77904D01*
D02*
G37*
G36*
X70000Y61200D02*
X68900Y60100D01*
Y51052D01*
X68400Y51003D01*
X68357Y51222D01*
X67804Y52049D01*
X67402Y52450D01*
X66575Y53003D01*
X65600Y53197D01*
X64625Y53003D01*
X63798Y52450D01*
X63400Y51855D01*
X62900Y52007D01*
Y60500D01*
X60700Y62700D01*
Y65600D01*
X70000D01*
Y61200D01*
D02*
G37*
G36*
X88145Y70222D02*
X88280Y66000D01*
X91000D01*
X91100Y66100D01*
X91600Y65600D01*
Y59400D01*
X90700Y57600D01*
Y50600D01*
X88807D01*
X88671Y54377D01*
Y56906D01*
X88559Y57468D01*
X88500Y59100D01*
X86200D01*
Y82700D01*
X88145D01*
Y70222D01*
D02*
G37*
G36*
X81600Y78500D02*
Y45400D01*
X88000D01*
X91600Y49000D01*
X93800D01*
Y57500D01*
X94800Y58500D01*
X100800D01*
Y82600D01*
X103800Y85600D01*
X116550Y85600D01*
X117050Y85245D01*
Y82700D01*
X107400D01*
X105700Y81000D01*
Y52300D01*
X114400D01*
Y46400D01*
X105700D01*
Y46300D01*
X105300Y45900D01*
X93313Y45900D01*
X90600Y43404D01*
X90600Y38900D01*
Y28300D01*
X86200Y23900D01*
Y7100D01*
X81500Y2400D01*
X60700D01*
X58500Y4600D01*
X58451Y9983D01*
X58803Y10338D01*
X60484D01*
Y13200D01*
X60734D01*
Y13450D01*
X63596D01*
Y15600D01*
X68200D01*
X74500Y21900D01*
Y74200D01*
X70700Y78000D01*
X61053D01*
X60702Y78356D01*
X60800Y85600D01*
X74500D01*
X81600Y78500D01*
D02*
G37*
%LPC*%
G36*
X130800Y178754D02*
Y177100D01*
X132454D01*
X132149Y177836D01*
X131535Y178449D01*
X130800Y178754D01*
D02*
G37*
G36*
X129800D02*
X129065Y178449D01*
X128451Y177836D01*
X128146Y177100D01*
X129800D01*
Y178754D01*
D02*
G37*
G36*
X132454Y176100D02*
X130800D01*
Y174446D01*
X131535Y174751D01*
X132149Y175364D01*
X132454Y176100D01*
D02*
G37*
G36*
X129800D02*
X128146D01*
X128451Y175364D01*
X129065Y174751D01*
X129800Y174446D01*
Y176100D01*
D02*
G37*
G36*
X134700Y173254D02*
Y171600D01*
X136354D01*
X136049Y172336D01*
X135435Y172949D01*
X134700Y173254D01*
D02*
G37*
G36*
X133700D02*
X132965Y172949D01*
X132351Y172336D01*
X132046Y171600D01*
X133700D01*
Y173254D01*
D02*
G37*
G36*
X136354Y170600D02*
X134700D01*
Y168946D01*
X135435Y169251D01*
X136049Y169864D01*
X136354Y170600D01*
D02*
G37*
G36*
X133700D02*
X132046D01*
X132351Y169864D01*
X132965Y169251D01*
X133700Y168946D01*
Y170600D01*
D02*
G37*
G36*
X47500Y178054D02*
Y176400D01*
X49154D01*
X48849Y177136D01*
X48235Y177749D01*
X47500Y178054D01*
D02*
G37*
G36*
X46500D02*
X45764Y177749D01*
X45151Y177136D01*
X44846Y176400D01*
X46500D01*
Y178054D01*
D02*
G37*
G36*
X49154Y175400D02*
X47500D01*
Y173746D01*
X48235Y174051D01*
X48849Y174664D01*
X49154Y175400D01*
D02*
G37*
G36*
X46500D02*
X44846D01*
X45151Y174664D01*
X45764Y174051D01*
X46500Y173746D01*
Y175400D01*
D02*
G37*
G36*
X44265Y172605D02*
Y170951D01*
X45918D01*
X45614Y171686D01*
X45000Y172300D01*
X44265Y172605D01*
D02*
G37*
G36*
X43264D02*
X42529Y172300D01*
X41916Y171686D01*
X41611Y170951D01*
X43264D01*
Y172605D01*
D02*
G37*
G36*
X45918Y169951D02*
X44265D01*
Y168297D01*
X45000Y168602D01*
X45614Y169216D01*
X45918Y169951D01*
D02*
G37*
G36*
X43264D02*
X41611D01*
X41916Y169216D01*
X42529Y168602D01*
X43264Y168297D01*
Y169951D01*
D02*
G37*
G36*
X63596Y12950D02*
X60984D01*
Y10338D01*
X63596D01*
Y12950D01*
D02*
G37*
%LPD*%
D19*
X98949Y173500D02*
D03*
X124186D02*
D03*
X12682Y141400D02*
D03*
X37918D02*
D03*
X139882Y173500D02*
D03*
X165118D02*
D03*
X53214Y173400D02*
D03*
X78450D02*
D03*
X12282Y173200D02*
D03*
X37518D02*
D03*
X165318Y141400D02*
D03*
X140082D02*
D03*
X99382Y141300D02*
D03*
X124618D02*
D03*
X78618Y141500D02*
D03*
X53382D02*
D03*
D20*
X133700Y27900D02*
D03*
X127584D02*
D03*
X57910Y22600D02*
D03*
X51794D02*
D03*
D21*
X111566Y28100D02*
D03*
X119834D02*
D03*
X60734Y13200D02*
D03*
X52466D02*
D03*
D22*
X112315Y64100D02*
D03*
Y69100D02*
D03*
Y74100D02*
D03*
Y79100D02*
D03*
Y89100D02*
D03*
Y94100D02*
D03*
Y99100D02*
D03*
Y104100D02*
D03*
Y109100D02*
D03*
X164285D02*
D03*
Y104100D02*
D03*
Y99100D02*
D03*
Y94100D02*
D03*
Y89100D02*
D03*
Y84100D02*
D03*
Y79100D02*
D03*
Y74100D02*
D03*
Y69100D02*
D03*
X65385Y69300D02*
D03*
Y74300D02*
D03*
Y79300D02*
D03*
Y84300D02*
D03*
Y89300D02*
D03*
Y94300D02*
D03*
Y99300D02*
D03*
Y104300D02*
D03*
Y109300D02*
D03*
X13415D02*
D03*
Y104300D02*
D03*
Y99300D02*
D03*
Y94300D02*
D03*
Y89300D02*
D03*
Y84300D02*
D03*
Y79300D02*
D03*
Y74300D02*
D03*
Y69300D02*
D03*
Y64300D02*
D03*
D23*
X112315Y84100D02*
D03*
D24*
X164285Y64100D02*
D03*
X65385Y64300D02*
D03*
D25*
X133458Y45400D02*
D03*
X140742D02*
D03*
X35158D02*
D03*
X42442D02*
D03*
D26*
X65900Y50246D02*
D03*
Y43154D02*
D03*
X111400Y42254D02*
D03*
Y49346D02*
D03*
D27*
X86056Y94200D02*
D03*
X80544D02*
D03*
X99656D02*
D03*
X94144D02*
D03*
D28*
X94200Y40800D02*
D03*
X88082D02*
D03*
D29*
X94157Y84200D02*
D03*
X87843D02*
D03*
D30*
X94839Y54232D02*
D03*
X92279D02*
D03*
X89720D02*
D03*
X87161D02*
D03*
Y71168D02*
D03*
X89720D02*
D03*
X92279D02*
D03*
D31*
X94839D02*
D03*
D32*
X138300Y86600D02*
D03*
X39400Y86800D02*
D03*
D34*
X91000Y62700D02*
D03*
D44*
X20000Y69300D02*
X21550Y67750D01*
X13415Y69300D02*
X20000D01*
X21550Y27750D02*
Y67750D01*
Y27750D02*
X29600Y19700D01*
X138300Y81700D02*
X138600Y82000D01*
X138300Y82300D02*
X138600Y82000D01*
X138300Y77773D02*
X151973Y64100D01*
X140700Y45300D02*
X140800Y45400D01*
Y53800D01*
X138400Y68400D02*
Y74800D01*
X136000Y66000D02*
X138400Y68400D01*
X139500Y16000D02*
Y32217D01*
X119600Y52117D02*
X139500Y32217D01*
X119600Y52117D02*
Y66900D01*
X122500Y57244D02*
Y74100D01*
Y57244D02*
X133458Y46286D01*
X111566Y20634D02*
X116200Y16000D01*
X111566Y20634D02*
Y28100D01*
X127384D02*
X127584Y27900D01*
X119834Y28100D02*
X127384D01*
X126200Y16000D02*
X133700Y23500D01*
Y27900D01*
X51700Y17800D02*
X52466Y17034D01*
Y13200D02*
Y17034D01*
X51700Y22262D02*
X52038Y22600D01*
X51700Y17800D02*
Y22262D01*
X112343Y79072D02*
X117528D01*
X122500Y74100D01*
X117478Y69022D02*
X119600Y66900D01*
X112393Y69022D02*
X117478D01*
X138300Y82300D02*
Y86600D01*
Y77773D02*
Y81700D01*
X149500Y15900D02*
X156500D01*
X94185Y84228D02*
Y94200D01*
X173800Y33200D02*
Y70000D01*
X156500Y15900D02*
X173800Y33200D01*
X99500Y87000D02*
Y94044D01*
X99656Y94200D01*
X80500Y94156D02*
X80544Y94200D01*
X80500Y88800D02*
Y94156D01*
X171100Y55700D02*
Y68224D01*
X165800Y50400D02*
X171100Y55700D01*
X164575Y68810D02*
X170514D01*
X171100Y68224D01*
X13415Y69300D02*
X13465Y69250D01*
X104261Y103778D02*
X108938Y99100D01*
X104261Y107961D02*
X104300Y108000D01*
X104261Y103778D02*
Y107961D01*
X58200Y22647D02*
Y29200D01*
X58153Y22600D02*
X58200Y22647D01*
X169700Y74100D02*
X173800Y70000D01*
X28500Y45900D02*
X34658D01*
X13415Y79300D02*
X21100D01*
X21400Y79000D01*
X39900Y65800D02*
X42446Y63254D01*
Y45800D02*
Y63254D01*
X108938Y99100D02*
X112315D01*
X94100Y94244D02*
X94144Y94200D01*
X94100Y94244D02*
Y98600D01*
X65385Y69300D02*
X71800D01*
X13415Y99300D02*
X21100D01*
X94839Y71168D02*
X95319Y71648D01*
Y72000D02*
X97900D01*
X95319Y71648D02*
Y72000D01*
X164200Y58900D02*
X164285Y58985D01*
X94144Y94200D02*
X94185D01*
X86056D02*
X94144D01*
X138300Y74900D02*
Y77773D01*
X94157Y84200D02*
X94185Y84228D01*
X93400Y83443D02*
X94157Y84200D01*
X65385Y89300D02*
X68762D01*
X138300Y74900D02*
X138400Y74800D01*
X136000Y58600D02*
Y66000D01*
Y58600D02*
X140800Y53800D01*
X164285Y69100D02*
X164575Y68810D01*
X164285Y74100D02*
X169700D01*
X160909Y94100D02*
X164285D01*
X160909Y89100D02*
X164285D01*
D45*
X78100Y43100D02*
X82720Y38480D01*
X65954Y43100D02*
X78100D01*
X65900Y43154D02*
X65954Y43100D01*
X30600Y6800D02*
X71020D01*
X65600Y50648D02*
X66001Y50246D01*
X4900Y32500D02*
X30600Y6800D01*
X4900Y32500D02*
Y82200D01*
X7000Y84300D01*
X13415D01*
X111272Y49218D02*
X111400Y49346D01*
X119046Y42254D02*
X120800Y40500D01*
X111400Y42254D02*
X119046D01*
X96500Y18500D02*
Y38969D01*
X94669Y40800D02*
X96500Y38969D01*
X94200Y40800D02*
X94669D01*
X4400Y96200D02*
Y134825D01*
X6676Y137101D01*
X11296D01*
X108220Y184820D02*
Y207000D01*
X100335Y177799D02*
X101199D01*
X108220Y184820D01*
X70310Y94111D02*
X78618Y102418D01*
Y141500D01*
X99382Y102918D02*
Y141300D01*
Y102918D02*
X111441Y90859D01*
X98949Y173500D02*
Y176413D01*
X100335Y177799D01*
X74000Y180764D02*
X78450Y176313D01*
X74000Y180764D02*
Y207000D01*
X160909Y82609D02*
Y82617D01*
X168300Y91200D02*
X173000Y95900D01*
X8700Y91900D02*
X13000D01*
X98949Y173500D02*
X99166Y173284D01*
Y141516D02*
Y173284D01*
Y141516D02*
X99382Y141300D01*
X78450Y173400D02*
Y176313D01*
Y173400D02*
X78534Y173316D01*
Y141584D02*
Y173316D01*
Y141584D02*
X78618Y141500D01*
X165318Y138487D02*
Y141400D01*
X173000Y95900D02*
Y134758D01*
X165318Y138487D02*
X166704Y137101D01*
X170657D01*
X173000Y134758D01*
X165218Y141500D02*
X165318Y141400D01*
X165218Y141500D02*
Y173400D01*
X165118Y173500D02*
X165218Y173400D01*
X12682Y138487D02*
Y141400D01*
X11296Y137101D02*
X12682Y138487D01*
X12482Y141600D02*
X12682Y141400D01*
X4400Y96200D02*
X8700Y91900D01*
X12482Y141600D02*
Y173000D01*
X12282Y173200D02*
X12482Y173000D01*
X43168Y207000D02*
X60220D01*
X12282Y176113D02*
X43168Y207000D01*
X12282Y173200D02*
Y176113D01*
X13415Y74300D02*
X26900D01*
X122000Y207000D02*
X134531D01*
X165118Y173500D02*
Y176413D01*
X134531Y207000D02*
X165118Y176413D01*
D46*
X39700Y19700D02*
Y23800D01*
X58341Y42441D02*
Y73500D01*
X39700Y23800D02*
X58341Y42441D01*
Y73500D02*
X59141Y74300D01*
X65385D01*
X34658Y45900D02*
X35158Y45400D01*
X112315Y79100D02*
X112343Y79072D01*
X133458Y45400D02*
Y46286D01*
X87100Y71229D02*
X87161Y71168D01*
X112315Y69100D02*
X112393Y69022D01*
X94157Y84200D02*
X94839Y83518D01*
X26900Y74300D02*
X39400Y86800D01*
X87161Y83518D02*
X87843Y84200D01*
D47*
X118090Y74100D02*
X119289Y72901D01*
X112315Y74100D02*
X118090D01*
X164285Y58985D02*
Y64100D01*
D48*
X149500Y16000D02*
D03*
X39600Y19700D02*
D03*
X116200Y16000D02*
D03*
D49*
X139500Y16000D02*
D03*
X29600Y19700D02*
D03*
X126200Y16000D02*
D03*
D50*
X82720Y18500D02*
D03*
X122000Y207000D02*
D03*
X74000D02*
D03*
D51*
X96500Y18500D02*
D03*
X108220Y207000D02*
D03*
X60220D02*
D03*
D52*
X11811Y208661D02*
D03*
X165354Y11811D02*
D03*
X11811D02*
D03*
X165354Y208661D02*
D03*
D53*
X147800Y106100D02*
D03*
X65600Y58000D02*
D03*
X7000Y84300D02*
D03*
X132400Y137700D02*
D03*
X132500Y144900D02*
D03*
X45800Y145000D02*
D03*
X45700Y137800D02*
D03*
X128400Y66200D02*
D03*
X128500Y73800D02*
D03*
X138244Y66144D02*
D03*
X138300Y73800D02*
D03*
Y82101D02*
D03*
X49400Y97800D02*
D03*
X30400D02*
D03*
X39900D02*
D03*
X92900Y61600D02*
D03*
X89400Y64300D02*
D03*
X30400Y65800D02*
D03*
X147800Y66100D02*
D03*
Y90100D02*
D03*
Y82100D02*
D03*
X138300Y90100D02*
D03*
Y98100D02*
D03*
Y106100D02*
D03*
X147800Y98100D02*
D03*
Y74100D02*
D03*
X128800Y90100D02*
D03*
Y98100D02*
D03*
Y106100D02*
D03*
X49400Y81800D02*
D03*
X39900D02*
D03*
Y89800D02*
D03*
Y73800D02*
D03*
X49400Y105800D02*
D03*
Y65800D02*
D03*
Y73800D02*
D03*
Y89800D02*
D03*
X39900Y65800D02*
D03*
X30400Y73800D02*
D03*
Y81800D02*
D03*
Y89800D02*
D03*
Y105800D02*
D03*
X39900D02*
D03*
D54*
X158500Y81600D02*
D03*
D55*
X134200Y171100D02*
D03*
X47000Y175900D02*
D03*
X119289Y72901D02*
D03*
X120800Y40500D02*
D03*
X99500Y87000D02*
D03*
X80500Y88800D02*
D03*
X58200Y29200D02*
D03*
X28500Y45900D02*
D03*
X21400Y79000D02*
D03*
X104300Y108000D02*
D03*
X94100Y98600D02*
D03*
X165800Y50400D02*
D03*
X71800Y69300D02*
D03*
X21100Y99300D02*
D03*
X97900Y72000D02*
D03*
X43764Y170451D02*
D03*
X130300Y176600D02*
D03*
X164200Y58900D02*
D03*
D56*
X128800Y82100D02*
D03*
M02*
