G04*
G04 #@! TF.GenerationSoftware,Altium Limited,Altium Designer,23.10.1 (27)*
G04*
G04 Layer_Color=8421504*
%FSLAX25Y25*%
%MOIN*%
G70*
G04*
G04 #@! TF.SameCoordinates,BE9A1C7D-6EBF-47CB-866B-E429BD166B13*
G04*
G04*
G04 #@! TF.FilePolarity,Positive*
G04*
G01*
G75*
%ADD14R,0.06269X0.07060*%
%ADD15R,0.06269X0.07060*%
%ADD16R,0.06269X0.07060*%
%ADD17R,0.06269X0.07060*%
%ADD18R,0.05595X0.04398*%
%ADD19R,0.06772X0.12598*%
%ADD20R,0.03381X0.03591*%
%ADD21R,0.04724X0.04724*%
G04:AMPARAMS|DCode=22|XSize=92.7mil|YSize=25.17mil|CornerRadius=12.58mil|HoleSize=0mil|Usage=FLASHONLY|Rotation=180.000|XOffset=0mil|YOffset=0mil|HoleType=Round|Shape=RoundedRectangle|*
%AMROUNDEDRECTD22*
21,1,0.09270,0.00000,0,0,180.0*
21,1,0.06753,0.02517,0,0,180.0*
1,1,0.02517,-0.03376,0.00000*
1,1,0.02517,0.03376,0.00000*
1,1,0.02517,0.03376,0.00000*
1,1,0.02517,-0.03376,0.00000*
%
%ADD22ROUNDEDRECTD22*%
G04:AMPARAMS|DCode=23|XSize=92.7mil|YSize=25.17mil|CornerRadius=12.59mil|HoleSize=0mil|Usage=FLASHONLY|Rotation=180.000|XOffset=0mil|YOffset=0mil|HoleType=Round|Shape=RoundedRectangle|*
%AMROUNDEDRECTD23*
21,1,0.09270,0.00000,0,0,180.0*
21,1,0.06753,0.02517,0,0,180.0*
1,1,0.02517,-0.03376,0.00000*
1,1,0.02517,0.03376,0.00000*
1,1,0.02517,0.03376,0.00000*
1,1,0.02517,-0.03376,0.00000*
%
%ADD23ROUNDEDRECTD23*%
%ADD24R,0.09270X0.02517*%
%ADD25R,0.03740X0.05512*%
%ADD26R,0.06127X0.05924*%
%ADD27R,0.03543X0.04134*%
%ADD28R,0.04953X0.03985*%
%ADD29R,0.04758X0.03985*%
G04:AMPARAMS|DCode=30|XSize=73.09mil|YSize=19.61mil|CornerRadius=9.8mil|HoleSize=0mil|Usage=FLASHONLY|Rotation=270.000|XOffset=0mil|YOffset=0mil|HoleType=Round|Shape=RoundedRectangle|*
%AMROUNDEDRECTD30*
21,1,0.07309,0.00000,0,0,270.0*
21,1,0.05348,0.01961,0,0,270.0*
1,1,0.01961,0.00000,-0.02674*
1,1,0.01961,0.00000,0.02674*
1,1,0.01961,0.00000,0.02674*
1,1,0.01961,0.00000,-0.02674*
%
%ADD30ROUNDEDRECTD30*%
%ADD31R,0.01961X0.07309*%
D14*
X129646Y105489D02*
D03*
Y96044D02*
D03*
Y86600D02*
D03*
Y67711D02*
D03*
X30746Y67911D02*
D03*
Y86800D02*
D03*
Y96244D02*
D03*
Y105689D02*
D03*
D15*
X138300Y105489D02*
D03*
X146954D02*
D03*
X138300Y96044D02*
D03*
X146954D02*
D03*
X138300Y86600D02*
D03*
X146954D02*
D03*
X138300Y67711D02*
D03*
X146954D02*
D03*
X48054Y67911D02*
D03*
X39400D02*
D03*
X48054Y86800D02*
D03*
X39400D02*
D03*
X48054Y96244D02*
D03*
X39400D02*
D03*
X48054Y105689D02*
D03*
X39400D02*
D03*
D16*
X129646Y77156D02*
D03*
X30746Y77356D02*
D03*
D17*
X138300Y77156D02*
D03*
X146954D02*
D03*
X48054Y77356D02*
D03*
X39400D02*
D03*
D18*
X91000Y62700D02*
D03*
D19*
X98949Y173500D02*
D03*
X124186D02*
D03*
X12682Y141400D02*
D03*
X37918D02*
D03*
X139882Y173500D02*
D03*
X165118D02*
D03*
X53214Y173400D02*
D03*
X78450D02*
D03*
X12282Y173200D02*
D03*
X37518D02*
D03*
X165318Y141400D02*
D03*
X140082D02*
D03*
X99382Y141300D02*
D03*
X124618D02*
D03*
X78618Y141500D02*
D03*
X53382D02*
D03*
D20*
X133700Y27900D02*
D03*
X127584D02*
D03*
X57910Y22600D02*
D03*
X51794D02*
D03*
D21*
X111566Y28100D02*
D03*
X119834D02*
D03*
X60734Y13200D02*
D03*
X52466D02*
D03*
D22*
X112315Y64100D02*
D03*
Y69100D02*
D03*
Y74100D02*
D03*
Y79100D02*
D03*
Y89100D02*
D03*
Y94100D02*
D03*
Y99100D02*
D03*
Y104100D02*
D03*
Y109100D02*
D03*
X164285D02*
D03*
Y104100D02*
D03*
Y99100D02*
D03*
Y94100D02*
D03*
Y89100D02*
D03*
Y84100D02*
D03*
Y79100D02*
D03*
Y74100D02*
D03*
Y69100D02*
D03*
X65385Y69300D02*
D03*
Y74300D02*
D03*
Y79300D02*
D03*
Y84300D02*
D03*
Y89300D02*
D03*
Y94300D02*
D03*
Y99300D02*
D03*
Y104300D02*
D03*
Y109300D02*
D03*
X13415D02*
D03*
Y104300D02*
D03*
Y99300D02*
D03*
Y94300D02*
D03*
Y89300D02*
D03*
Y84300D02*
D03*
Y79300D02*
D03*
Y74300D02*
D03*
Y69300D02*
D03*
Y64300D02*
D03*
D23*
X112315Y84100D02*
D03*
D24*
X164285Y64100D02*
D03*
X65385Y64300D02*
D03*
D25*
X133458Y45400D02*
D03*
X140742D02*
D03*
X35158D02*
D03*
X42442D02*
D03*
D26*
X65900Y50246D02*
D03*
Y43154D02*
D03*
X111400Y42254D02*
D03*
Y49346D02*
D03*
D27*
X86056Y94200D02*
D03*
X80544D02*
D03*
X99656D02*
D03*
X94144D02*
D03*
D28*
X94200Y40800D02*
D03*
X88082D02*
D03*
D29*
X94157Y84200D02*
D03*
X87843D02*
D03*
D30*
X94839Y54232D02*
D03*
X92279D02*
D03*
X89720D02*
D03*
X87161D02*
D03*
Y71168D02*
D03*
X89720D02*
D03*
X92279D02*
D03*
D31*
X94839D02*
D03*
M02*
