G04*
G04 #@! TF.GenerationSoftware,Altium Limited,Altium Designer,23.10.1 (27)*
G04*
G04 Layer_Color=8388736*
%FSLAX25Y25*%
%MOIN*%
G70*
G04*
G04 #@! TF.SameCoordinates,BE9A1C7D-6EBF-47CB-866B-E429BD166B13*
G04*
G04*
G04 #@! TF.FilePolarity,Negative*
G04*
G01*
G75*
%ADD19R,0.06772X0.12598*%
%ADD20R,0.03381X0.03591*%
%ADD21R,0.04724X0.04724*%
G04:AMPARAMS|DCode=22|XSize=92.7mil|YSize=25.17mil|CornerRadius=12.58mil|HoleSize=0mil|Usage=FLASHONLY|Rotation=180.000|XOffset=0mil|YOffset=0mil|HoleType=Round|Shape=RoundedRectangle|*
%AMROUNDEDRECTD22*
21,1,0.09270,0.00000,0,0,180.0*
21,1,0.06753,0.02517,0,0,180.0*
1,1,0.02517,-0.03376,0.00000*
1,1,0.02517,0.03376,0.00000*
1,1,0.02517,0.03376,0.00000*
1,1,0.02517,-0.03376,0.00000*
%
%ADD22ROUNDEDRECTD22*%
G04:AMPARAMS|DCode=23|XSize=92.7mil|YSize=25.17mil|CornerRadius=12.59mil|HoleSize=0mil|Usage=FLASHONLY|Rotation=180.000|XOffset=0mil|YOffset=0mil|HoleType=Round|Shape=RoundedRectangle|*
%AMROUNDEDRECTD23*
21,1,0.09270,0.00000,0,0,180.0*
21,1,0.06753,0.02517,0,0,180.0*
1,1,0.02517,-0.03376,0.00000*
1,1,0.02517,0.03376,0.00000*
1,1,0.02517,0.03376,0.00000*
1,1,0.02517,-0.03376,0.00000*
%
%ADD23ROUNDEDRECTD23*%
%ADD24R,0.09270X0.02517*%
%ADD25R,0.03740X0.05512*%
%ADD26R,0.06127X0.05924*%
%ADD28R,0.04953X0.03985*%
%ADD29R,0.04758X0.03985*%
G04:AMPARAMS|DCode=30|XSize=73.09mil|YSize=19.61mil|CornerRadius=9.8mil|HoleSize=0mil|Usage=FLASHONLY|Rotation=270.000|XOffset=0mil|YOffset=0mil|HoleType=Round|Shape=RoundedRectangle|*
%AMROUNDEDRECTD30*
21,1,0.07309,0.00000,0,0,270.0*
21,1,0.05348,0.01961,0,0,270.0*
1,1,0.01961,0.00000,-0.02674*
1,1,0.01961,0.00000,0.02674*
1,1,0.01961,0.00000,0.02674*
1,1,0.01961,0.00000,-0.02674*
%
%ADD30ROUNDEDRECTD30*%
%ADD31R,0.01961X0.07309*%
%ADD32R,0.28347X0.49606*%
%ADD33R,0.04134X0.04724*%
%ADD34R,0.08465X0.07268*%
G04:AMPARAMS|DCode=35|XSize=68.9mil|YSize=68.9mil|CornerRadius=18.7mil|HoleSize=0mil|Usage=FLASHONLY|Rotation=180.000|XOffset=0mil|YOffset=0mil|HoleType=Round|Shape=RoundedRectangle|*
%AMROUNDEDRECTD35*
21,1,0.06890,0.03150,0,0,180.0*
21,1,0.03150,0.06890,0,0,180.0*
1,1,0.03740,-0.01575,0.01575*
1,1,0.03740,0.01575,0.01575*
1,1,0.03740,0.01575,-0.01575*
1,1,0.03740,-0.01575,-0.01575*
%
%ADD35ROUNDEDRECTD35*%
%ADD36C,0.06890*%
G04:AMPARAMS|DCode=37|XSize=76.77mil|YSize=76.77mil|CornerRadius=20.67mil|HoleSize=0mil|Usage=FLASHONLY|Rotation=0.000|XOffset=0mil|YOffset=0mil|HoleType=Round|Shape=RoundedRectangle|*
%AMROUNDEDRECTD37*
21,1,0.07677,0.03543,0,0,0.0*
21,1,0.03543,0.07677,0,0,0.0*
1,1,0.04134,0.01772,-0.01772*
1,1,0.04134,-0.01772,-0.01772*
1,1,0.04134,-0.01772,0.01772*
1,1,0.04134,0.01772,0.01772*
%
%ADD37ROUNDEDRECTD37*%
%ADD38C,0.07677*%
%ADD39C,0.13976*%
%ADD40C,0.02991*%
%ADD41C,0.03091*%
%ADD42C,0.02953*%
%ADD43C,0.02992*%
D19*
X98949Y173500D02*
D03*
X124186D02*
D03*
X12682Y141400D02*
D03*
X37918D02*
D03*
X139882Y173500D02*
D03*
X165118D02*
D03*
X53214Y173400D02*
D03*
X78450D02*
D03*
X12282Y173200D02*
D03*
X37518D02*
D03*
X165318Y141400D02*
D03*
X140082D02*
D03*
X99382Y141300D02*
D03*
X124618D02*
D03*
X78618Y141500D02*
D03*
X53382D02*
D03*
D20*
X133700Y27900D02*
D03*
X127584D02*
D03*
X57910Y22600D02*
D03*
X51794D02*
D03*
D21*
X111566Y28100D02*
D03*
X119834D02*
D03*
X60734Y13200D02*
D03*
X52466D02*
D03*
D22*
X112315Y64100D02*
D03*
Y69100D02*
D03*
Y74100D02*
D03*
Y79100D02*
D03*
Y89100D02*
D03*
Y94100D02*
D03*
Y99100D02*
D03*
Y104100D02*
D03*
Y109100D02*
D03*
X164285D02*
D03*
Y104100D02*
D03*
Y99100D02*
D03*
Y94100D02*
D03*
Y89100D02*
D03*
Y84100D02*
D03*
Y79100D02*
D03*
Y74100D02*
D03*
Y69100D02*
D03*
X65385Y69300D02*
D03*
Y74300D02*
D03*
Y79300D02*
D03*
Y84300D02*
D03*
Y89300D02*
D03*
Y94300D02*
D03*
Y99300D02*
D03*
Y104300D02*
D03*
Y109300D02*
D03*
X13415D02*
D03*
Y104300D02*
D03*
Y99300D02*
D03*
Y94300D02*
D03*
Y89300D02*
D03*
Y84300D02*
D03*
Y79300D02*
D03*
Y74300D02*
D03*
Y69300D02*
D03*
Y64300D02*
D03*
D23*
X112315Y84100D02*
D03*
D24*
X164285Y64100D02*
D03*
X65385Y64300D02*
D03*
D25*
X133458Y45400D02*
D03*
X140742D02*
D03*
X35158D02*
D03*
X42442D02*
D03*
D26*
X65900Y50246D02*
D03*
Y43154D02*
D03*
X111400Y42254D02*
D03*
Y49346D02*
D03*
D28*
X94200Y40800D02*
D03*
X88082D02*
D03*
D29*
X94157Y84200D02*
D03*
X87843D02*
D03*
D30*
X94839Y54232D02*
D03*
X92279D02*
D03*
X89720D02*
D03*
X87161D02*
D03*
Y71168D02*
D03*
X89720D02*
D03*
X92279D02*
D03*
D31*
X94839D02*
D03*
D32*
X138300Y86600D02*
D03*
X39400Y86800D02*
D03*
D33*
X86056Y94200D02*
D03*
X80544D02*
D03*
X99656D02*
D03*
X94144D02*
D03*
D34*
X91000Y62700D02*
D03*
D35*
X149500Y16000D02*
D03*
X39600Y19700D02*
D03*
X116200Y16000D02*
D03*
D36*
X139500Y16000D02*
D03*
X29600Y19700D02*
D03*
X126200Y16000D02*
D03*
D37*
X82720Y18500D02*
D03*
X122000Y207000D02*
D03*
X74000D02*
D03*
D38*
X96500Y18500D02*
D03*
X108220Y207000D02*
D03*
X60220D02*
D03*
D39*
X11811Y208661D02*
D03*
X165354Y11811D02*
D03*
X11811D02*
D03*
X165354Y208661D02*
D03*
D40*
X147800Y106100D02*
D03*
X65600Y58000D02*
D03*
X7000Y84300D02*
D03*
X132400Y137700D02*
D03*
X132500Y144900D02*
D03*
X45800Y145000D02*
D03*
X45700Y137800D02*
D03*
X128400Y66200D02*
D03*
X128500Y73800D02*
D03*
X138244Y66144D02*
D03*
X138300Y73800D02*
D03*
Y82101D02*
D03*
X49400Y97800D02*
D03*
X30400D02*
D03*
X39900D02*
D03*
X92900Y61600D02*
D03*
X89400Y64300D02*
D03*
X30400Y65800D02*
D03*
X147800Y66100D02*
D03*
Y90100D02*
D03*
Y82100D02*
D03*
X138300Y90100D02*
D03*
Y98100D02*
D03*
Y106100D02*
D03*
X147800Y98100D02*
D03*
Y74100D02*
D03*
X128800Y90100D02*
D03*
Y98100D02*
D03*
Y106100D02*
D03*
X49400Y81800D02*
D03*
X39900D02*
D03*
Y89800D02*
D03*
Y73800D02*
D03*
X49400Y105800D02*
D03*
Y65800D02*
D03*
Y73800D02*
D03*
Y89800D02*
D03*
X39900Y65800D02*
D03*
X30400Y73800D02*
D03*
Y81800D02*
D03*
Y89800D02*
D03*
Y105800D02*
D03*
X39900D02*
D03*
D41*
X158500Y81600D02*
D03*
D42*
X134200Y171100D02*
D03*
X47000Y175900D02*
D03*
X119289Y72901D02*
D03*
X120800Y40500D02*
D03*
X99500Y87000D02*
D03*
X80500Y88800D02*
D03*
X58200Y29200D02*
D03*
X28500Y45900D02*
D03*
X21400Y79000D02*
D03*
X104300Y108000D02*
D03*
X94100Y98600D02*
D03*
X165800Y50400D02*
D03*
X71800Y69300D02*
D03*
X21100Y99300D02*
D03*
X97900Y72000D02*
D03*
X43764Y170451D02*
D03*
X130300Y176600D02*
D03*
X164200Y58900D02*
D03*
D43*
X128800Y82100D02*
D03*
M02*
