G04*
G04 #@! TF.GenerationSoftware,Altium Limited,Altium Designer,23.10.1 (27)*
G04*
G04 Layer_Physical_Order=2*
G04 Layer_Color=16711680*
%FSLAX25Y25*%
%MOIN*%
G70*
G04*
G04 #@! TF.SameCoordinates,BE9A1C7D-6EBF-47CB-866B-E429BD166B13*
G04*
G04*
G04 #@! TF.FilePolarity,Positive*
G04*
G01*
G75*
%ADD44C,0.01000*%
%ADD46C,0.00700*%
G04:AMPARAMS|DCode=48|XSize=62.99mil|YSize=62.99mil|CornerRadius=15.75mil|HoleSize=0mil|Usage=FLASHONLY|Rotation=180.000|XOffset=0mil|YOffset=0mil|HoleType=Round|Shape=RoundedRectangle|*
%AMROUNDEDRECTD48*
21,1,0.06299,0.03150,0,0,180.0*
21,1,0.03150,0.06299,0,0,180.0*
1,1,0.03150,-0.01575,0.01575*
1,1,0.03150,0.01575,0.01575*
1,1,0.03150,0.01575,-0.01575*
1,1,0.03150,-0.01575,-0.01575*
%
%ADD48ROUNDEDRECTD48*%
%ADD49C,0.06299*%
G04:AMPARAMS|DCode=50|XSize=70.87mil|YSize=70.87mil|CornerRadius=17.72mil|HoleSize=0mil|Usage=FLASHONLY|Rotation=0.000|XOffset=0mil|YOffset=0mil|HoleType=Round|Shape=RoundedRectangle|*
%AMROUNDEDRECTD50*
21,1,0.07087,0.03543,0,0,0.0*
21,1,0.03543,0.07087,0,0,0.0*
1,1,0.03543,0.01772,-0.01772*
1,1,0.03543,-0.01772,-0.01772*
1,1,0.03543,-0.01772,0.01772*
1,1,0.03543,0.01772,0.01772*
%
%ADD50ROUNDEDRECTD50*%
%ADD51C,0.07087*%
%ADD52C,0.13386*%
%ADD53C,0.02400*%
%ADD54C,0.02500*%
%ADD55C,0.02362*%
%ADD56C,0.02402*%
%ADD57C,0.05000*%
G36*
X173766Y221697D02*
X174287Y221594D01*
X174778Y221390D01*
X175219Y221095D01*
X175595Y220719D01*
X175890Y220278D01*
X176094Y219787D01*
X176197Y219266D01*
X176197Y219000D01*
X176197Y219000D01*
X176197Y219000D01*
X176197Y3400D01*
X176197Y3144D01*
X176097Y2642D01*
X175902Y2170D01*
X175617Y1744D01*
X175256Y1383D01*
X174830Y1098D01*
X174357Y903D01*
X173856Y803D01*
X173600Y803D01*
X4100D01*
X3775Y803D01*
X3138Y929D01*
X2538Y1178D01*
X1998Y1539D01*
X1539Y1998D01*
X1178Y2538D01*
X929Y3138D01*
X803Y3775D01*
X803Y4100D01*
Y219000D01*
X803Y219266D01*
X906Y219787D01*
X1110Y220278D01*
X1405Y220719D01*
X1781Y221095D01*
X2222Y221390D01*
X2713Y221594D01*
X3234Y221697D01*
X3500Y221697D01*
X173500Y221697D01*
X173766Y221697D01*
D02*
G37*
%LPC*%
G36*
X108753Y211043D02*
X107688D01*
X106660Y210768D01*
X105738Y210235D01*
X104985Y209483D01*
X104453Y208561D01*
X104177Y207532D01*
Y206468D01*
X104453Y205439D01*
X104985Y204517D01*
X105738Y203765D01*
X106660Y203232D01*
X107688Y202957D01*
X108753D01*
X109781Y203232D01*
X110703Y203765D01*
X111456Y204517D01*
X111988Y205439D01*
X112264Y206468D01*
Y207532D01*
X111988Y208561D01*
X111456Y209483D01*
X110703Y210235D01*
X109781Y210768D01*
X108753Y211043D01*
D02*
G37*
G36*
X60753D02*
X59688D01*
X58660Y210768D01*
X57738Y210235D01*
X56985Y209483D01*
X56453Y208561D01*
X56177Y207532D01*
Y206468D01*
X56453Y205439D01*
X56985Y204517D01*
X57738Y203765D01*
X58660Y203232D01*
X59688Y202957D01*
X60753D01*
X61781Y203232D01*
X62703Y203765D01*
X63456Y204517D01*
X63988Y205439D01*
X64264Y206468D01*
Y207532D01*
X63988Y208561D01*
X63456Y209483D01*
X62703Y210235D01*
X61781Y210768D01*
X60753Y211043D01*
D02*
G37*
G36*
X123772Y211088D02*
X120228D01*
X119342Y210911D01*
X118591Y210409D01*
X118088Y209658D01*
X117912Y208772D01*
Y205228D01*
X118088Y204342D01*
X118591Y203591D01*
X119342Y203088D01*
X120228Y202912D01*
X123772D01*
X124658Y203088D01*
X125409Y203591D01*
X125911Y204342D01*
X126088Y205228D01*
Y208772D01*
X125911Y209658D01*
X125409Y210409D01*
X124658Y210911D01*
X123772Y211088D01*
D02*
G37*
G36*
X75772D02*
X72228D01*
X71342Y210911D01*
X70591Y210409D01*
X70088Y209658D01*
X69912Y208772D01*
Y205228D01*
X70088Y204342D01*
X70591Y203591D01*
X71342Y203088D01*
X72228Y202912D01*
X75772D01*
X76658Y203088D01*
X77409Y203591D01*
X77912Y204342D01*
X78088Y205228D01*
Y208772D01*
X77912Y209658D01*
X77409Y210409D01*
X76658Y210911D01*
X75772Y211088D01*
D02*
G37*
G36*
X166063Y215854D02*
X164646D01*
X163256Y215578D01*
X161947Y215036D01*
X160769Y214248D01*
X159767Y213247D01*
X158980Y212069D01*
X158438Y210759D01*
X158161Y209370D01*
Y207953D01*
X158438Y206563D01*
X158980Y205254D01*
X159767Y204076D01*
X160769Y203074D01*
X161947Y202287D01*
X163256Y201745D01*
X164646Y201468D01*
X166063D01*
X167452Y201745D01*
X168761Y202287D01*
X169939Y203074D01*
X170941Y204076D01*
X171729Y205254D01*
X172271Y206563D01*
X172547Y207953D01*
Y209370D01*
X172271Y210759D01*
X171729Y212069D01*
X170941Y213247D01*
X169939Y214248D01*
X168761Y215036D01*
X167452Y215578D01*
X166063Y215854D01*
D02*
G37*
G36*
X12519D02*
X11103D01*
X9713Y215578D01*
X8404Y215036D01*
X7226Y214248D01*
X6224Y213247D01*
X5437Y212069D01*
X4894Y210759D01*
X4618Y209370D01*
Y207953D01*
X4894Y206563D01*
X5437Y205254D01*
X6224Y204076D01*
X7226Y203074D01*
X8404Y202287D01*
X9713Y201745D01*
X11103Y201468D01*
X12519D01*
X13909Y201745D01*
X15218Y202287D01*
X16396Y203074D01*
X17398Y204076D01*
X18185Y205254D01*
X18728Y206563D01*
X19004Y207953D01*
Y209370D01*
X18728Y210759D01*
X18185Y212069D01*
X17398Y213247D01*
X16396Y214248D01*
X15218Y215036D01*
X13909Y215578D01*
X12519Y215854D01*
D02*
G37*
G36*
X130800Y178754D02*
Y177100D01*
X132454D01*
X132149Y177836D01*
X131535Y178449D01*
X130800Y178754D01*
D02*
G37*
G36*
X129800D02*
X129065Y178449D01*
X128451Y177836D01*
X128146Y177100D01*
X129800D01*
Y178754D01*
D02*
G37*
G36*
X47500Y178054D02*
Y176400D01*
X49154D01*
X48849Y177136D01*
X48235Y177749D01*
X47500Y178054D01*
D02*
G37*
G36*
X46500D02*
X45764Y177749D01*
X45151Y177136D01*
X44846Y176400D01*
X46500D01*
Y178054D01*
D02*
G37*
G36*
X132454Y176100D02*
X130800D01*
Y174446D01*
X131535Y174751D01*
X132149Y175364D01*
X132454Y176100D01*
D02*
G37*
G36*
X129800D02*
X128146D01*
X128451Y175364D01*
X129065Y174751D01*
X129800Y174446D01*
Y176100D01*
D02*
G37*
G36*
X49154Y175400D02*
X47500D01*
Y173746D01*
X48235Y174051D01*
X48849Y174664D01*
X49154Y175400D01*
D02*
G37*
G36*
X46500D02*
X44846D01*
X45151Y174664D01*
X45764Y174051D01*
X46500Y173746D01*
Y175400D01*
D02*
G37*
G36*
X134700Y173254D02*
Y171600D01*
X136354D01*
X136049Y172336D01*
X135435Y172949D01*
X134700Y173254D01*
D02*
G37*
G36*
X133700D02*
X132965Y172949D01*
X132351Y172336D01*
X132046Y171600D01*
X133700D01*
Y173254D01*
D02*
G37*
G36*
X44265Y172605D02*
Y170951D01*
X45918D01*
X45614Y171686D01*
X45000Y172300D01*
X44265Y172605D01*
D02*
G37*
G36*
X43264D02*
X42529Y172300D01*
X41916Y171686D01*
X41611Y170951D01*
X43264D01*
Y172605D01*
D02*
G37*
G36*
X136354Y170600D02*
X134700D01*
Y168946D01*
X135435Y169251D01*
X136049Y169864D01*
X136354Y170600D01*
D02*
G37*
G36*
X133700D02*
X132046D01*
X132351Y169864D01*
X132965Y169251D01*
X133700Y168946D01*
Y170600D01*
D02*
G37*
G36*
X45918Y169951D02*
X44265D01*
Y168297D01*
X45000Y168602D01*
X45614Y169216D01*
X45918Y169951D01*
D02*
G37*
G36*
X43264D02*
X41611D01*
X41916Y169216D01*
X42529Y168602D01*
X43264Y168297D01*
Y169951D01*
D02*
G37*
G36*
X135047Y148241D02*
X135046Y148241D01*
X135045Y148241D01*
X37400D01*
X37017Y148083D01*
X3717Y114783D01*
X3559Y114400D01*
X3559Y114400D01*
Y82600D01*
X3559Y82600D01*
X3717Y82217D01*
X5217Y80717D01*
X5600Y80559D01*
X5600Y80559D01*
X8700D01*
X8700Y80559D01*
X9083Y80717D01*
X11283Y82917D01*
X11441Y83300D01*
X11441Y83300D01*
Y108276D01*
X37824Y134659D01*
X135300D01*
X135337Y134674D01*
X139447D01*
X155474Y118647D01*
Y81600D01*
X155577Y80817D01*
X155879Y80087D01*
X156360Y79460D01*
X156987Y78979D01*
X157717Y78677D01*
X158500Y78574D01*
X159283Y78677D01*
X160013Y78979D01*
X160640Y79460D01*
X161120Y80087D01*
X161423Y80817D01*
X161526Y81600D01*
Y119900D01*
X161423Y120683D01*
X161120Y121413D01*
X160640Y122040D01*
X142840Y139840D01*
X142213Y140321D01*
X141483Y140623D01*
X140700Y140726D01*
X136240D01*
X135888Y141081D01*
X135938Y147341D01*
X135938Y147342D01*
X135938Y147343D01*
X135860Y147534D01*
X135783Y147725D01*
X135782Y147725D01*
X135781Y147726D01*
X135429Y148081D01*
X135428Y148082D01*
X135428Y148083D01*
X135237Y148162D01*
X135047Y148241D01*
D02*
G37*
G36*
X104634Y109681D02*
X103966D01*
X103348Y109425D01*
X102942Y109020D01*
X96326D01*
X95936Y108942D01*
X95605Y108721D01*
X90192Y103308D01*
X24089D01*
X23698Y103231D01*
X23368Y103009D01*
X21339Y100981D01*
X20766D01*
X20148Y100725D01*
X19675Y100252D01*
X19419Y99634D01*
Y98966D01*
X19675Y98348D01*
X20148Y97875D01*
X20766Y97619D01*
X21434D01*
X22052Y97875D01*
X22525Y98348D01*
X22781Y98966D01*
Y99539D01*
X24511Y101269D01*
X89989D01*
X92419Y98839D01*
Y98266D01*
X92675Y97648D01*
X93148Y97175D01*
X93766Y96919D01*
X94434D01*
X95052Y97175D01*
X95525Y97648D01*
X95781Y98266D01*
Y98934D01*
X95525Y99552D01*
X95052Y100025D01*
X94434Y100281D01*
X93861D01*
X91955Y102187D01*
X96748Y106980D01*
X102942D01*
X103348Y106575D01*
X103966Y106319D01*
X104634D01*
X105252Y106575D01*
X105725Y107048D01*
X105981Y107666D01*
Y108334D01*
X105725Y108952D01*
X105252Y109425D01*
X104634Y109681D01*
D02*
G37*
G36*
X80834Y90481D02*
X80166D01*
X79548Y90225D01*
X79075Y89752D01*
X78819Y89134D01*
Y88466D01*
X79075Y87848D01*
X79480Y87442D01*
Y86522D01*
X71079Y78121D01*
X70858Y77790D01*
X70780Y77400D01*
Y70658D01*
X70375Y70252D01*
X70119Y69634D01*
Y68966D01*
X70375Y68348D01*
X70848Y67875D01*
X71466Y67619D01*
X72134D01*
X72752Y67875D01*
X73225Y68348D01*
X73481Y68966D01*
Y69634D01*
X73225Y70252D01*
X72820Y70658D01*
Y76978D01*
X81221Y85379D01*
X81442Y85710D01*
X81520Y86100D01*
Y87442D01*
X81925Y87848D01*
X82181Y88466D01*
Y89134D01*
X81925Y89752D01*
X81452Y90225D01*
X80834Y90481D01*
D02*
G37*
G36*
X99834Y88681D02*
X99166D01*
X98548Y88425D01*
X98075Y87952D01*
X97819Y87334D01*
Y86666D01*
X98075Y86048D01*
X98548Y85575D01*
X99166Y85319D01*
X99834D01*
X100452Y85575D01*
X100476Y85599D01*
X100569Y85580D01*
X110978D01*
X146879Y49679D01*
X147210Y49458D01*
X147600Y49380D01*
X164442D01*
X164848Y48975D01*
X165466Y48719D01*
X166134D01*
X166752Y48975D01*
X167225Y49448D01*
X167481Y50066D01*
Y50734D01*
X167225Y51352D01*
X166752Y51825D01*
X166134Y52081D01*
X165466D01*
X164848Y51825D01*
X164442Y51420D01*
X148022D01*
X112121Y87321D01*
X111790Y87542D01*
X111400Y87620D01*
X101063D01*
X100925Y87952D01*
X100452Y88425D01*
X99834Y88681D01*
D02*
G37*
G36*
X21734Y80681D02*
X21066D01*
X20448Y80425D01*
X19975Y79952D01*
X19719Y79334D01*
Y78666D01*
X19975Y78048D01*
X20448Y77575D01*
X21066Y77319D01*
X21734D01*
X21738Y77320D01*
X25280Y73778D01*
Y58800D01*
X25358Y58410D01*
X25579Y58079D01*
X25910Y57858D01*
X26043Y57832D01*
X27480Y56394D01*
Y47258D01*
X27075Y46852D01*
X26819Y46234D01*
Y45566D01*
X27075Y44948D01*
X27548Y44475D01*
X28166Y44219D01*
X28834D01*
X29452Y44475D01*
X29925Y44948D01*
X30181Y45566D01*
Y46234D01*
X29925Y46852D01*
X29520Y47258D01*
Y56600D01*
X29442Y56990D01*
X29221Y57321D01*
X28890Y57542D01*
X28757Y57568D01*
X27320Y59006D01*
Y74200D01*
X27242Y74590D01*
X27021Y74921D01*
X23081Y78861D01*
Y79334D01*
X22825Y79952D01*
X22352Y80425D01*
X21734Y80681D01*
D02*
G37*
G36*
X97032Y22543D02*
X96750D01*
Y18750D01*
X100543D01*
Y19032D01*
X100268Y20061D01*
X99735Y20983D01*
X98983Y21735D01*
X98061Y22268D01*
X97032Y22543D01*
D02*
G37*
G36*
X96250D02*
X95968D01*
X94939Y22268D01*
X94017Y21735D01*
X93265Y20983D01*
X92732Y20061D01*
X92457Y19032D01*
Y18750D01*
X96250D01*
Y22543D01*
D02*
G37*
G36*
X126681Y19649D02*
X126450D01*
Y16250D01*
X129850D01*
Y16480D01*
X129601Y17409D01*
X129120Y18241D01*
X128441Y18920D01*
X127609Y19401D01*
X126681Y19649D01*
D02*
G37*
G36*
X125950D02*
X125719D01*
X124791Y19401D01*
X123959Y18920D01*
X123280Y18241D01*
X122799Y17409D01*
X122550Y16480D01*
Y16250D01*
X125950D01*
Y19649D01*
D02*
G37*
G36*
X30081Y23350D02*
X29120D01*
X28191Y23101D01*
X27359Y22620D01*
X26680Y21941D01*
X26199Y21109D01*
X25950Y20180D01*
Y19219D01*
X26199Y18291D01*
X26680Y17459D01*
X27359Y16780D01*
X28191Y16299D01*
X29120Y16050D01*
X30081D01*
X31009Y16299D01*
X31841Y16780D01*
X32520Y17459D01*
X33001Y18291D01*
X33250Y19219D01*
Y20180D01*
X33001Y21109D01*
X32520Y21941D01*
X31841Y22620D01*
X31009Y23101D01*
X30081Y23350D01*
D02*
G37*
G36*
X41175Y23390D02*
X38025D01*
X37216Y23229D01*
X36529Y22771D01*
X36071Y22084D01*
X35910Y21275D01*
Y18125D01*
X36071Y17316D01*
X36529Y16629D01*
X37216Y16171D01*
X38025Y16010D01*
X41175D01*
X41984Y16171D01*
X42671Y16629D01*
X43129Y17316D01*
X43290Y18125D01*
Y21275D01*
X43129Y22084D01*
X42671Y22771D01*
X41984Y23229D01*
X41175Y23390D01*
D02*
G37*
G36*
X100543Y18250D02*
X96750D01*
Y14457D01*
X97032D01*
X98061Y14732D01*
X98983Y15265D01*
X99735Y16017D01*
X100268Y16939D01*
X100543Y17968D01*
Y18250D01*
D02*
G37*
G36*
X96250D02*
X92457D01*
Y17968D01*
X92732Y16939D01*
X93265Y16017D01*
X94017Y15265D01*
X94939Y14732D01*
X95968Y14457D01*
X96250D01*
Y18250D01*
D02*
G37*
G36*
X84492Y22588D02*
X80949D01*
X80062Y22411D01*
X79311Y21909D01*
X78809Y21158D01*
X78633Y20272D01*
Y16728D01*
X78809Y15842D01*
X79311Y15091D01*
X80062Y14589D01*
X80949Y14412D01*
X84492D01*
X85378Y14589D01*
X86130Y15091D01*
X86632Y15842D01*
X86808Y16728D01*
Y20272D01*
X86632Y21158D01*
X86130Y21909D01*
X85378Y22411D01*
X84492Y22588D01*
D02*
G37*
G36*
X139980Y19650D02*
X139020D01*
X138091Y19401D01*
X137259Y18920D01*
X136580Y18241D01*
X136099Y17409D01*
X135850Y16480D01*
Y15519D01*
X136099Y14591D01*
X136580Y13759D01*
X137259Y13080D01*
X138091Y12599D01*
X139020Y12350D01*
X139980D01*
X140909Y12599D01*
X141741Y13080D01*
X142420Y13759D01*
X142901Y14591D01*
X143150Y15519D01*
Y16480D01*
X142901Y17409D01*
X142420Y18241D01*
X141741Y18920D01*
X140909Y19401D01*
X139980Y19650D01*
D02*
G37*
G36*
X129850Y15750D02*
X126450D01*
Y12350D01*
X126681D01*
X127609Y12599D01*
X128441Y13080D01*
X129120Y13759D01*
X129601Y14591D01*
X129850Y15519D01*
Y15750D01*
D02*
G37*
G36*
X125950D02*
X122550D01*
Y15519D01*
X122799Y14591D01*
X123280Y13759D01*
X123959Y13080D01*
X124791Y12599D01*
X125719Y12350D01*
X125950D01*
Y15750D01*
D02*
G37*
G36*
X151075Y19690D02*
X147925D01*
X147116Y19529D01*
X146429Y19071D01*
X145971Y18384D01*
X145810Y17575D01*
Y14425D01*
X145971Y13616D01*
X146429Y12929D01*
X147116Y12471D01*
X147925Y12310D01*
X151075D01*
X151884Y12471D01*
X152571Y12929D01*
X153029Y13616D01*
X153190Y14425D01*
Y17575D01*
X153029Y18384D01*
X152571Y19071D01*
X151884Y19529D01*
X151075Y19690D01*
D02*
G37*
G36*
X98234Y73681D02*
X97566D01*
X96948Y73425D01*
X96475Y72952D01*
X96219Y72334D01*
Y71666D01*
X96475Y71048D01*
X96948Y70575D01*
X97566Y70319D01*
X98139D01*
X107180Y61278D01*
Y24000D01*
X107258Y23610D01*
X107479Y23279D01*
X112621Y18136D01*
X112510Y17575D01*
Y14425D01*
X112671Y13616D01*
X113129Y12929D01*
X113816Y12471D01*
X114625Y12310D01*
X117775D01*
X118584Y12471D01*
X119271Y12929D01*
X119729Y13616D01*
X119890Y14425D01*
Y17575D01*
X119729Y18384D01*
X119271Y19071D01*
X118584Y19529D01*
X117775Y19690D01*
X114625D01*
X114063Y19578D01*
X109220Y24422D01*
Y61700D01*
X109142Y62090D01*
X108921Y62421D01*
X99581Y71761D01*
Y72334D01*
X99325Y72952D01*
X98852Y73425D01*
X98234Y73681D01*
D02*
G37*
G36*
X166063Y19004D02*
X164646D01*
X163256Y18728D01*
X161947Y18185D01*
X160769Y17398D01*
X159767Y16396D01*
X158980Y15218D01*
X158438Y13909D01*
X158161Y12519D01*
Y11103D01*
X158438Y9713D01*
X158980Y8404D01*
X159767Y7226D01*
X160769Y6224D01*
X161947Y5437D01*
X163256Y4894D01*
X164646Y4618D01*
X166063D01*
X167452Y4894D01*
X168761Y5437D01*
X169939Y6224D01*
X170941Y7226D01*
X171729Y8404D01*
X172271Y9713D01*
X172547Y11103D01*
Y12519D01*
X172271Y13909D01*
X171729Y15218D01*
X170941Y16396D01*
X169939Y17398D01*
X168761Y18185D01*
X167452Y18728D01*
X166063Y19004D01*
D02*
G37*
G36*
X12519D02*
X11103D01*
X9713Y18728D01*
X8404Y18185D01*
X7226Y17398D01*
X6224Y16396D01*
X5437Y15218D01*
X4894Y13909D01*
X4618Y12519D01*
Y11103D01*
X4894Y9713D01*
X5437Y8404D01*
X6224Y7226D01*
X7226Y6224D01*
X8404Y5437D01*
X9713Y4894D01*
X11103Y4618D01*
X12519D01*
X13909Y4894D01*
X15218Y5437D01*
X16396Y6224D01*
X17398Y7226D01*
X18185Y8404D01*
X18728Y9713D01*
X19004Y11103D01*
Y12519D01*
X18728Y13909D01*
X18185Y15218D01*
X17398Y16396D01*
X16396Y17398D01*
X15218Y18185D01*
X13909Y18728D01*
X12519Y19004D01*
D02*
G37*
%LPD*%
G36*
X135397Y147345D02*
X135300Y135200D01*
X37600D01*
X10900Y108500D01*
Y83300D01*
X8700Y81100D01*
X5600D01*
X4100Y82600D01*
Y114400D01*
X37400Y147700D01*
X135045D01*
X135397Y147345D01*
D02*
G37*
D44*
X111400Y86600D02*
X147600Y50400D01*
X165800D01*
X100569Y86600D02*
X111400D01*
X99761Y86739D02*
X100429D01*
X100569Y86600D01*
X99500Y87000D02*
X99761Y86739D01*
X108200Y24000D02*
X116200Y16000D01*
X139500Y16000D02*
Y17900D01*
X108200Y24000D02*
Y61700D01*
X90614Y102086D02*
Y102289D01*
Y102086D02*
X94100Y98600D01*
X90614Y102289D02*
X96326Y108000D01*
X104300D01*
X24089Y102289D02*
X90614D01*
X21100Y99300D02*
X24089Y102289D01*
X71800Y69300D02*
Y77400D01*
X80500Y86100D02*
Y88800D01*
X71800Y77400D02*
X80500Y86100D01*
X28500Y45900D02*
Y56600D01*
X21500Y79000D02*
X26300Y74200D01*
Y58800D02*
Y74200D01*
X97900Y72000D02*
X108200Y61700D01*
D46*
X26300Y58800D02*
X28500Y56600D01*
X21400Y79000D02*
X21500D01*
D48*
X149500Y16000D02*
D03*
X39600Y19700D02*
D03*
X116200Y16000D02*
D03*
D49*
X139500Y16000D02*
D03*
X29600Y19700D02*
D03*
X126200Y16000D02*
D03*
D50*
X82720Y18500D02*
D03*
X122000Y207000D02*
D03*
X74000D02*
D03*
D51*
X96500Y18500D02*
D03*
X108220Y207000D02*
D03*
X60220D02*
D03*
D52*
X11811Y208661D02*
D03*
X165354Y11811D02*
D03*
X11811D02*
D03*
X165354Y208661D02*
D03*
D53*
X147800Y106100D02*
D03*
X65600Y58000D02*
D03*
X7000Y84300D02*
D03*
X132400Y137700D02*
D03*
X132500Y144900D02*
D03*
X45800Y145000D02*
D03*
X45700Y137800D02*
D03*
X128400Y66200D02*
D03*
X128500Y73800D02*
D03*
X138244Y66144D02*
D03*
X138300Y73800D02*
D03*
Y82101D02*
D03*
X49400Y97800D02*
D03*
X30400D02*
D03*
X39900D02*
D03*
X92900Y61600D02*
D03*
X89400Y64300D02*
D03*
X30400Y65800D02*
D03*
X147800Y66100D02*
D03*
Y90100D02*
D03*
Y82100D02*
D03*
X138300Y90100D02*
D03*
Y98100D02*
D03*
Y106100D02*
D03*
X147800Y98100D02*
D03*
Y74100D02*
D03*
X128800Y90100D02*
D03*
Y98100D02*
D03*
Y106100D02*
D03*
X49400Y81800D02*
D03*
X39900D02*
D03*
Y89800D02*
D03*
Y73800D02*
D03*
X49400Y105800D02*
D03*
Y65800D02*
D03*
Y73800D02*
D03*
Y89800D02*
D03*
X39900Y65800D02*
D03*
X30400Y73800D02*
D03*
Y81800D02*
D03*
Y89800D02*
D03*
Y105800D02*
D03*
X39900D02*
D03*
D54*
X158500Y81600D02*
D03*
D55*
X134200Y171100D02*
D03*
X47000Y175900D02*
D03*
X119289Y72901D02*
D03*
X120800Y40500D02*
D03*
X99500Y87000D02*
D03*
X80500Y88800D02*
D03*
X58200Y29200D02*
D03*
X28500Y45900D02*
D03*
X21400Y79000D02*
D03*
X104300Y108000D02*
D03*
X94100Y98600D02*
D03*
X165800Y50400D02*
D03*
X71800Y69300D02*
D03*
X21100Y99300D02*
D03*
X97900Y72000D02*
D03*
X43764Y170451D02*
D03*
X130300Y176600D02*
D03*
X164200Y58900D02*
D03*
D56*
X128800Y82100D02*
D03*
D57*
X132400Y137700D02*
X140700D01*
X158500Y81600D02*
Y119900D01*
X140700Y137700D02*
X158500Y119900D01*
M02*
