G04*
G04 #@! TF.GenerationSoftware,Altium Limited,Altium Designer,23.10.1 (27)*
G04*
G04 Layer_Color=16711935*
%FSLAX25Y25*%
%MOIN*%
G70*
G04*
G04 #@! TF.SameCoordinates,BE9A1C7D-6EBF-47CB-866B-E429BD166B13*
G04*
G04*
G04 #@! TF.FilePolarity,Negative*
G04*
G01*
G75*
G04:AMPARAMS|DCode=35|XSize=68.9mil|YSize=68.9mil|CornerRadius=18.7mil|HoleSize=0mil|Usage=FLASHONLY|Rotation=180.000|XOffset=0mil|YOffset=0mil|HoleType=Round|Shape=RoundedRectangle|*
%AMROUNDEDRECTD35*
21,1,0.06890,0.03150,0,0,180.0*
21,1,0.03150,0.06890,0,0,180.0*
1,1,0.03740,-0.01575,0.01575*
1,1,0.03740,0.01575,0.01575*
1,1,0.03740,0.01575,-0.01575*
1,1,0.03740,-0.01575,-0.01575*
%
%ADD35ROUNDEDRECTD35*%
%ADD36C,0.06890*%
G04:AMPARAMS|DCode=37|XSize=76.77mil|YSize=76.77mil|CornerRadius=20.67mil|HoleSize=0mil|Usage=FLASHONLY|Rotation=0.000|XOffset=0mil|YOffset=0mil|HoleType=Round|Shape=RoundedRectangle|*
%AMROUNDEDRECTD37*
21,1,0.07677,0.03543,0,0,0.0*
21,1,0.03543,0.07677,0,0,0.0*
1,1,0.04134,0.01772,-0.01772*
1,1,0.04134,-0.01772,-0.01772*
1,1,0.04134,-0.01772,0.01772*
1,1,0.04134,0.01772,0.01772*
%
%ADD37ROUNDEDRECTD37*%
%ADD38C,0.07677*%
%ADD39C,0.13976*%
%ADD40C,0.02991*%
%ADD41C,0.03091*%
%ADD42C,0.02953*%
%ADD43C,0.02992*%
D35*
X149500Y16000D02*
D03*
X39600Y19700D02*
D03*
X116200Y16000D02*
D03*
D36*
X139500Y16000D02*
D03*
X29600Y19700D02*
D03*
X126200Y16000D02*
D03*
D37*
X82720Y18500D02*
D03*
X122000Y207000D02*
D03*
X74000D02*
D03*
D38*
X96500Y18500D02*
D03*
X108220Y207000D02*
D03*
X60220D02*
D03*
D39*
X11811Y208661D02*
D03*
X165354Y11811D02*
D03*
X11811D02*
D03*
X165354Y208661D02*
D03*
D40*
X147800Y106100D02*
D03*
X65600Y58000D02*
D03*
X7000Y84300D02*
D03*
X132400Y137700D02*
D03*
X132500Y144900D02*
D03*
X45800Y145000D02*
D03*
X45700Y137800D02*
D03*
X128400Y66200D02*
D03*
X128500Y73800D02*
D03*
X138244Y66144D02*
D03*
X138300Y73800D02*
D03*
Y82101D02*
D03*
X49400Y97800D02*
D03*
X30400D02*
D03*
X39900D02*
D03*
X92900Y61600D02*
D03*
X89400Y64300D02*
D03*
X30400Y65800D02*
D03*
X147800Y66100D02*
D03*
Y90100D02*
D03*
Y82100D02*
D03*
X138300Y90100D02*
D03*
Y98100D02*
D03*
Y106100D02*
D03*
X147800Y98100D02*
D03*
Y74100D02*
D03*
X128800Y90100D02*
D03*
Y98100D02*
D03*
Y106100D02*
D03*
X49400Y81800D02*
D03*
X39900D02*
D03*
Y89800D02*
D03*
Y73800D02*
D03*
X49400Y105800D02*
D03*
Y65800D02*
D03*
Y73800D02*
D03*
Y89800D02*
D03*
X39900Y65800D02*
D03*
X30400Y73800D02*
D03*
Y81800D02*
D03*
Y89800D02*
D03*
Y105800D02*
D03*
X39900D02*
D03*
D41*
X158500Y81600D02*
D03*
D42*
X134200Y171100D02*
D03*
X47000Y175900D02*
D03*
X119289Y72901D02*
D03*
X120800Y40500D02*
D03*
X99500Y87000D02*
D03*
X80500Y88800D02*
D03*
X58200Y29200D02*
D03*
X28500Y45900D02*
D03*
X21400Y79000D02*
D03*
X104300Y108000D02*
D03*
X94100Y98600D02*
D03*
X165800Y50400D02*
D03*
X71800Y69300D02*
D03*
X21100Y99300D02*
D03*
X97900Y72000D02*
D03*
X43764Y170451D02*
D03*
X130300Y176600D02*
D03*
X164200Y58900D02*
D03*
D43*
X128800Y82100D02*
D03*
M02*
