G04*
G04 #@! TF.GenerationSoftware,Altium Limited,Altium Designer,23.10.1 (27)*
G04*
G04 Layer_Color=128*
%FSLAX25Y25*%
%MOIN*%
G70*
G04*
G04 #@! TF.SameCoordinates,BE9A1C7D-6EBF-47CB-866B-E429BD166B13*
G04*
G04*
G04 #@! TF.FilePolarity,Positive*
G04*
G01*
G75*
%ADD13C,0.00500*%
D13*
X147335Y16000D02*
X151665D01*
X149500Y13835D02*
Y18165D01*
X137335Y16000D02*
X141665D01*
X139500Y13835D02*
Y18165D01*
X80358Y18500D02*
X85083D01*
X82720Y16138D02*
Y20862D01*
X94138Y18500D02*
X98862D01*
X96500Y16138D02*
Y20862D01*
X37435Y19700D02*
X41765D01*
X39600Y17535D02*
Y21865D01*
X27435Y19700D02*
X31765D01*
X29600Y17535D02*
Y21865D01*
X5906Y208661D02*
X17717D01*
X11811Y202756D02*
Y214567D01*
X159449Y11811D02*
X171260D01*
X165354Y5906D02*
Y17717D01*
X5906Y11811D02*
X17717D01*
X11811Y5906D02*
Y17717D01*
X159449Y208661D02*
X171260D01*
X165354Y202756D02*
Y214567D01*
X124035Y16000D02*
X128365D01*
X126200Y13835D02*
Y18165D01*
X114035Y16000D02*
X118365D01*
X116200Y13835D02*
Y18165D01*
X119638Y207000D02*
X124362D01*
X122000Y204638D02*
Y209362D01*
X105858Y207000D02*
X110583D01*
X108220Y204638D02*
Y209362D01*
X71638Y207000D02*
X76362D01*
X74000Y204638D02*
Y209362D01*
X57858Y207000D02*
X62583D01*
X60220Y204638D02*
Y209362D01*
X147200Y106100D02*
X148400D01*
X147800Y105500D02*
Y106700D01*
X157800Y81600D02*
X159200D01*
X158500Y80900D02*
Y82300D01*
X65000Y58000D02*
X66200D01*
X65600Y57400D02*
Y58600D01*
X6350Y84300D02*
X7650D01*
X7000Y83650D02*
Y84950D01*
X131750Y137700D02*
X133050D01*
X132400Y137050D02*
Y138350D01*
X131850Y144900D02*
X133150D01*
X132500Y144250D02*
Y145550D01*
X45150Y145000D02*
X46450D01*
X45800Y144350D02*
Y145650D01*
X45050Y137800D02*
X46350D01*
X45700Y137150D02*
Y138450D01*
X133609Y171100D02*
X134791D01*
X134200Y170509D02*
Y171691D01*
X46409Y175900D02*
X47591D01*
X47000Y175309D02*
Y176491D01*
X127800Y66200D02*
X129000D01*
X128400Y65600D02*
Y66800D01*
X118699Y72901D02*
X119880D01*
X119289Y72311D02*
Y73492D01*
X127900Y73800D02*
X129100D01*
X128500Y73200D02*
Y74400D01*
X137644Y66144D02*
X138844D01*
X138244Y65544D02*
Y66744D01*
X128200Y82100D02*
X129400D01*
X128800Y81500D02*
Y82700D01*
X137700Y73800D02*
X138900D01*
X138300Y73200D02*
Y74400D01*
X137700Y82101D02*
X138900D01*
X138300Y81501D02*
Y82701D01*
X120209Y40500D02*
X121391D01*
X120800Y39909D02*
Y41091D01*
X98909Y87000D02*
X100091D01*
X99500Y86409D02*
Y87590D01*
X79909Y88800D02*
X81090D01*
X80500Y88209D02*
Y89390D01*
X57609Y29200D02*
X58790D01*
X58200Y28609D02*
Y29791D01*
X27909Y45900D02*
X29091D01*
X28500Y45309D02*
Y46491D01*
X20809Y79000D02*
X21991D01*
X21400Y78409D02*
Y79590D01*
X103709Y108000D02*
X104891D01*
X104300Y107409D02*
Y108591D01*
X93510Y98600D02*
X94691D01*
X94100Y98010D02*
Y99190D01*
X165209Y50400D02*
X166391D01*
X165800Y49809D02*
Y50991D01*
X71210Y69300D02*
X72391D01*
X71800Y68709D02*
Y69890D01*
X48800Y97800D02*
X50000D01*
X49400Y97200D02*
Y98400D01*
X29800Y97800D02*
X31000D01*
X30400Y97200D02*
Y98400D01*
X39300Y97800D02*
X40500D01*
X39900Y97200D02*
Y98400D01*
X20509Y99300D02*
X21690D01*
X21100Y98709D02*
Y99891D01*
X97309Y72000D02*
X98491D01*
X97900Y71409D02*
Y72591D01*
X92300Y61600D02*
X93500D01*
X92900Y61000D02*
Y62200D01*
X88800Y64300D02*
X90000D01*
X89400Y63700D02*
Y64900D01*
X43174Y170451D02*
X44355D01*
X43764Y169860D02*
Y171042D01*
X129709Y176600D02*
X130891D01*
X130300Y176009D02*
Y177191D01*
X163609Y58900D02*
X164791D01*
X164200Y58310D02*
Y59491D01*
X29800Y65800D02*
X31000D01*
X30400Y65200D02*
Y66400D01*
X147200Y66100D02*
X148400D01*
X147800Y65500D02*
Y66700D01*
X147200Y90100D02*
X148400D01*
X147800Y89500D02*
Y90700D01*
X147200Y82100D02*
X148400D01*
X147800Y81500D02*
Y82700D01*
X137700Y90100D02*
X138900D01*
X138300Y89500D02*
Y90700D01*
X137700Y98100D02*
X138900D01*
X138300Y97500D02*
Y98700D01*
X137700Y106100D02*
X138900D01*
X138300Y105500D02*
Y106700D01*
X147200Y98100D02*
X148400D01*
X147800Y97500D02*
Y98700D01*
X147200Y74100D02*
X148400D01*
X147800Y73500D02*
Y74700D01*
X128200Y90100D02*
X129400D01*
X128800Y89500D02*
Y90700D01*
X128200Y98100D02*
X129400D01*
X128800Y97500D02*
Y98700D01*
X128200Y106100D02*
X129400D01*
X128800Y105500D02*
Y106700D01*
X48800Y81800D02*
X50000D01*
X49400Y81200D02*
Y82400D01*
X39300Y81800D02*
X40500D01*
X39900Y81200D02*
Y82400D01*
X39300Y89800D02*
X40500D01*
X39900Y89200D02*
Y90400D01*
X39300Y73800D02*
X40500D01*
X39900Y73200D02*
Y74400D01*
X48800Y105800D02*
X50000D01*
X49400Y105200D02*
Y106400D01*
X48800Y65800D02*
X50000D01*
X49400Y65200D02*
Y66400D01*
X48800Y73800D02*
X50000D01*
X49400Y73200D02*
Y74400D01*
X48800Y89800D02*
X50000D01*
X49400Y89200D02*
Y90400D01*
X39300Y65800D02*
X40500D01*
X39900Y65200D02*
Y66400D01*
X29800Y73800D02*
X31000D01*
X30400Y73200D02*
Y74400D01*
X29800Y81800D02*
X31000D01*
X30400Y81200D02*
Y82400D01*
X29800Y89800D02*
X31000D01*
X30400Y89200D02*
Y90400D01*
X29800Y105800D02*
X31000D01*
X30400Y105200D02*
Y106400D01*
X39300Y105800D02*
X40500D01*
X39900Y105200D02*
Y106400D01*
M02*
