M48
;Layer_Color=9474304
;FILE_FORMAT=2:4
INCH,TZ
;TYPE=PLATED
T01F00S00C0.0118
T02F00S00C0.0120
T03F00S00C0.0130
T04F00S00C0.0140
T05F00S00C0.0433
T06F00S00C0.0472
T07F00S00C0.1181
%
T01
X5820Y2920
X7180Y6930
X8050Y8880
X9950Y8700
X9790Y7200
X11929Y7290
X12080Y4050
X16580Y5040
X16420Y5890
X10430Y10800
X9410Y9860
X2110Y9930
X2140Y7900
X2850Y4590
X4376Y17045
X4700Y17590
X13030Y17660
X13420Y17110
T02
X4940Y6580
Y7380
Y8180
Y8980
Y9780
Y10580
X6560Y5800
X8940Y6430
X9290Y6160
X12840Y6620
X12850Y7380
X12880Y8210
Y9010
Y9810
Y10610
X13830
Y9810
Y9010
Y8210
Y7380
X13824Y6614
X14780Y6610
Y7410
Y8210
Y9010
Y9810
Y10610
X3990Y10580
Y9780
Y8980
Y8180
Y7380
Y6580
X3040
Y7380
Y8180
Y8980
Y9780
Y10580
T03
X13240Y13770
X13250Y14490
X4580Y14500
X4570Y13780
X700Y8430
T04
X15850Y8160
T05
X11620Y1600
X12620
X13950Y1600
X14950
X3960Y1970
X2960
T06
X8272Y1850
X9650
X10822Y20700
X12200
X7400
X6022
T07
X16535Y1181
X1181
Y20866
X16535
M30
