G04*
G04 #@! TF.GenerationSoftware,Altium Limited,Altium Designer,23.10.1 (27)*
G04*
G04 Layer_Color=32896*
%FSLAX25Y25*%
%MOIN*%
G70*
G04*
G04 #@! TF.SameCoordinates,BE9A1C7D-6EBF-47CB-866B-E429BD166B13*
G04*
G04*
G04 #@! TF.FilePolarity,Positive*
G04*
G01*
G75*
%ADD60C,0.00591*%
D60*
X149420Y18952D02*
Y13048D01*
X146468D01*
X145484Y14032D01*
Y16000D01*
X146468Y16984D01*
X149420D01*
X139580Y18952D02*
X143516D01*
X139580Y15016D01*
Y14032D01*
X140564Y13048D01*
X142532D01*
X143516Y14032D01*
X89610Y21058D02*
X87642D01*
X88626D01*
Y16138D01*
X87642Y15155D01*
X86658D01*
X85675Y16138D01*
X91578Y15155D02*
X93546D01*
X92562D01*
Y21058D01*
X91578Y20074D01*
X39520Y22652D02*
Y16748D01*
X36568D01*
X35584Y17732D01*
Y19700D01*
X36568Y20684D01*
X39520D01*
X33616Y17732D02*
X32632Y16748D01*
X30664D01*
X29680Y17732D01*
Y18716D01*
X30664Y19700D01*
X31648D01*
X30664D01*
X29680Y20684D01*
Y21668D01*
X30664Y22652D01*
X32632D01*
X33616Y21668D01*
X117264Y13048D02*
Y18952D01*
X120216D01*
X121200Y17968D01*
Y16000D01*
X120216Y15016D01*
X117264D01*
X123168Y13048D02*
X125136D01*
X124152D01*
Y18952D01*
X123168Y17968D01*
X116089Y204442D02*
X118057D01*
X117073D01*
Y209362D01*
X118057Y210345D01*
X119041D01*
X120025Y209362D01*
X110185Y210345D02*
X114121D01*
X110185Y206410D01*
Y205426D01*
X111169Y204442D01*
X113137D01*
X114121Y205426D01*
X70532Y205048D02*
X72499D01*
X71516D01*
Y209968D01*
X72499Y210952D01*
X73483D01*
X74467Y209968D01*
X68564Y206032D02*
X67580Y205048D01*
X65612D01*
X64628Y206032D01*
Y207016D01*
X65612Y208000D01*
X66596D01*
X65612D01*
X64628Y208984D01*
Y209968D01*
X65612Y210952D01*
X67580D01*
X68564Y209968D01*
M02*
