G04*
G04 #@! TF.GenerationSoftware,Altium Limited,Altium Designer,23.10.1 (27)*
G04*
G04 Layer_Color=2752767*
%FSLAX25Y25*%
%MOIN*%
G70*
G04*
G04 #@! TF.SameCoordinates,BE9A1C7D-6EBF-47CB-866B-E429BD166B13*
G04*
G04*
G04 #@! TF.FilePolarity,Positive*
G04*
G01*
G75*
%ADD13C,0.00500*%
%ADD61C,0.00667*%
D13*
X80720Y16500D02*
Y20500D01*
X84720D01*
Y16500D01*
X80720D01*
X94500D02*
Y20500D01*
X98500D01*
Y16500D01*
X94500D01*
X10811Y207661D02*
Y206661D01*
X12811D01*
Y207661D01*
X13811D01*
Y209661D01*
X12811D01*
Y210661D01*
X10811D01*
Y209661D01*
X9811D01*
Y207661D01*
X10811D01*
X164354Y10811D02*
Y9811D01*
X166354D01*
Y10811D01*
X167354D01*
Y12811D01*
X166354D01*
Y13811D01*
X164354D01*
Y12811D01*
X163354D01*
Y10811D01*
X164354D01*
X10811D02*
Y9811D01*
X12811D01*
Y10811D01*
X13811D01*
Y12811D01*
X12811D01*
Y13811D01*
X10811D01*
Y12811D01*
X9811D01*
Y10811D01*
X10811D01*
X164354Y207661D02*
Y206661D01*
X166354D01*
Y207661D01*
X167354D01*
Y209661D01*
X166354D01*
Y210661D01*
X164354D01*
Y209661D01*
X163354D01*
Y207661D01*
X164354D01*
X120000Y205000D02*
Y209000D01*
X124000D01*
Y205000D01*
X120000D01*
X106220D02*
Y209000D01*
X110220D01*
Y205000D01*
X106220D01*
X72000D02*
Y209000D01*
X76000D01*
Y205000D01*
X72000D01*
X58220D02*
Y209000D01*
X62220D01*
Y205000D01*
X58220D01*
X145800Y104100D02*
X146800Y106100D01*
X145800Y108100D01*
X147800Y107100D01*
X149800Y108100D01*
X148800Y106100D01*
X149800Y104100D01*
X147800Y105100D01*
X145800Y104100D01*
X156500Y81600D02*
X158500Y83600D01*
X160500Y81600D01*
X158500Y79600D01*
X156500Y81600D01*
X63600Y56000D02*
X64600Y58000D01*
X63600Y60000D01*
X65600Y59000D01*
X67600Y60000D01*
X66600Y58000D01*
X67600Y56000D01*
X65600Y57000D01*
X63600Y56000D01*
X5000Y82300D02*
X6000D01*
X7000Y83300D01*
X8000Y82300D01*
X9000D01*
Y83300D01*
X8000Y84300D01*
X9000Y85300D01*
Y86300D01*
X8000D01*
X7000Y85300D01*
X6000Y86300D01*
X5000D01*
Y85300D01*
X6000Y84300D01*
X5000Y83300D01*
Y82300D01*
X130400Y135700D02*
X131400D01*
X132400Y136700D01*
X133400Y135700D01*
X134400D01*
Y136700D01*
X133400Y137700D01*
X134400Y138700D01*
Y139700D01*
X133400D01*
X132400Y138700D01*
X131400Y139700D01*
X130400D01*
Y138700D01*
X131400Y137700D01*
X130400Y136700D01*
Y135700D01*
X130500Y142900D02*
X131500D01*
X132500Y143900D01*
X133500Y142900D01*
X134500D01*
Y143900D01*
X133500Y144900D01*
X134500Y145900D01*
Y146900D01*
X133500D01*
X132500Y145900D01*
X131500Y146900D01*
X130500D01*
Y145900D01*
X131500Y144900D01*
X130500Y143900D01*
Y142900D01*
X43800Y143000D02*
X44800D01*
X45800Y144000D01*
X46800Y143000D01*
X47800D01*
Y144000D01*
X46800Y145000D01*
X47800Y146000D01*
Y147000D01*
X46800D01*
X45800Y146000D01*
X44800Y147000D01*
X43800D01*
Y146000D01*
X44800Y145000D01*
X43800Y144000D01*
Y143000D01*
X43700Y135800D02*
X44700D01*
X45700Y136800D01*
X46700Y135800D01*
X47700D01*
Y136800D01*
X46700Y137800D01*
X47700Y138800D01*
Y139800D01*
X46700D01*
X45700Y138800D01*
X44700Y139800D01*
X43700D01*
Y138800D01*
X44700Y137800D01*
X43700Y136800D01*
Y135800D01*
X134200Y169100D02*
X135200Y170100D01*
X136200D01*
X135200Y171100D01*
X136200Y172100D01*
X135200D01*
X134200Y173100D01*
X133200Y172100D01*
X132200D01*
X133200Y171100D01*
X132200Y170100D01*
X133200D01*
X134200Y169100D01*
X47000Y173900D02*
X48000Y174900D01*
X49000D01*
X48000Y175900D01*
X49000Y176900D01*
X48000D01*
X47000Y177900D01*
X46000Y176900D01*
X45000D01*
X46000Y175900D01*
X45000Y174900D01*
X46000D01*
X47000Y173900D01*
X126400Y64200D02*
X127400Y66200D01*
X126400Y68200D01*
X128400Y67200D01*
X130400Y68200D01*
X129400Y66200D01*
X130400Y64200D01*
X128400Y65200D01*
X126400Y64200D01*
X119289Y70901D02*
X120289Y71901D01*
X121289D01*
X120289Y72901D01*
X121289Y73901D01*
X120289D01*
X119289Y74901D01*
X118289Y73901D01*
X117289D01*
X118289Y72901D01*
X117289Y71901D01*
X118289D01*
X119289Y70901D01*
X126500Y71800D02*
X127500Y73800D01*
X126500Y75800D01*
X128500Y74800D01*
X130500Y75800D01*
X129500Y73800D01*
X130500Y71800D01*
X128500Y72800D01*
X126500Y71800D01*
X136244Y64144D02*
X137244Y66144D01*
X136244Y68144D01*
X138244Y67144D01*
X140244Y68144D01*
X139244Y66144D01*
X140244Y64144D01*
X138244Y65144D01*
X136244Y64144D01*
X126800Y80100D02*
X127800Y82100D01*
X126800Y84100D01*
X128800Y83100D01*
X130800Y84100D01*
X129800Y82100D01*
X130800Y80100D01*
X128800Y81100D01*
X126800Y80100D01*
X136300Y71800D02*
X137300Y73800D01*
X136300Y75800D01*
X138300Y74800D01*
X140300Y75800D01*
X139300Y73800D01*
X140300Y71800D01*
X138300Y72800D01*
X136300Y71800D01*
Y80101D02*
X137300Y82101D01*
X136300Y84101D01*
X138300Y83101D01*
X140300Y84101D01*
X139300Y82101D01*
X140300Y80101D01*
X138300Y81101D01*
X136300Y80101D01*
X120800Y38500D02*
X121800Y39500D01*
X122800D01*
X121800Y40500D01*
X122800Y41500D01*
X121800D01*
X120800Y42500D01*
X119800Y41500D01*
X118800D01*
X119800Y40500D01*
X118800Y39500D01*
X119800D01*
X120800Y38500D01*
X99500Y85000D02*
X100500Y86000D01*
X101500D01*
X100500Y87000D01*
X101500Y88000D01*
X100500D01*
X99500Y89000D01*
X98500Y88000D01*
X97500D01*
X98500Y87000D01*
X97500Y86000D01*
X98500D01*
X99500Y85000D01*
X80500Y86800D02*
X81500Y87800D01*
X82500D01*
X81500Y88800D01*
X82500Y89800D01*
X81500D01*
X80500Y90800D01*
X79500Y89800D01*
X78500D01*
X79500Y88800D01*
X78500Y87800D01*
X79500D01*
X80500Y86800D01*
X58200Y27200D02*
X59200Y28200D01*
X60200D01*
X59200Y29200D01*
X60200Y30200D01*
X59200D01*
X58200Y31200D01*
X57200Y30200D01*
X56200D01*
X57200Y29200D01*
X56200Y28200D01*
X57200D01*
X58200Y27200D01*
X28500Y43900D02*
X29500Y44900D01*
X30500D01*
X29500Y45900D01*
X30500Y46900D01*
X29500D01*
X28500Y47900D01*
X27500Y46900D01*
X26500D01*
X27500Y45900D01*
X26500Y44900D01*
X27500D01*
X28500Y43900D01*
X21400Y77000D02*
X22400Y78000D01*
X23400D01*
X22400Y79000D01*
X23400Y80000D01*
X22400D01*
X21400Y81000D01*
X20400Y80000D01*
X19400D01*
X20400Y79000D01*
X19400Y78000D01*
X20400D01*
X21400Y77000D01*
X104300Y106000D02*
X105300Y107000D01*
X106300D01*
X105300Y108000D01*
X106300Y109000D01*
X105300D01*
X104300Y110000D01*
X103300Y109000D01*
X102300D01*
X103300Y108000D01*
X102300Y107000D01*
X103300D01*
X104300Y106000D01*
X94100Y96600D02*
X95100Y97600D01*
X96100D01*
X95100Y98600D01*
X96100Y99600D01*
X95100D01*
X94100Y100600D01*
X93100Y99600D01*
X92100D01*
X93100Y98600D01*
X92100Y97600D01*
X93100D01*
X94100Y96600D01*
X165800Y48400D02*
X166800Y49400D01*
X167800D01*
X166800Y50400D01*
X167800Y51400D01*
X166800D01*
X165800Y52400D01*
X164800Y51400D01*
X163800D01*
X164800Y50400D01*
X163800Y49400D01*
X164800D01*
X165800Y48400D01*
X71800Y67300D02*
X72800Y68300D01*
X73800D01*
X72800Y69300D01*
X73800Y70300D01*
X72800D01*
X71800Y71300D01*
X70800Y70300D01*
X69800D01*
X70800Y69300D01*
X69800Y68300D01*
X70800D01*
X71800Y67300D01*
X47400Y95800D02*
X48400Y97800D01*
X47400Y99800D01*
X49400Y98800D01*
X51400Y99800D01*
X50400Y97800D01*
X51400Y95800D01*
X49400Y96800D01*
X47400Y95800D01*
X28400D02*
X29400Y97800D01*
X28400Y99800D01*
X30400Y98800D01*
X32400Y99800D01*
X31400Y97800D01*
X32400Y95800D01*
X30400Y96800D01*
X28400Y95800D01*
X37900D02*
X38900Y97800D01*
X37900Y99800D01*
X39900Y98800D01*
X41900Y99800D01*
X40900Y97800D01*
X41900Y95800D01*
X39900Y96800D01*
X37900Y95800D01*
X21100Y97300D02*
X22100Y98300D01*
X23100D01*
X22100Y99300D01*
X23100Y100300D01*
X22100D01*
X21100Y101300D01*
X20100Y100300D01*
X19100D01*
X20100Y99300D01*
X19100Y98300D01*
X20100D01*
X21100Y97300D01*
X97900Y70000D02*
X98900Y71000D01*
X99900D01*
X98900Y72000D01*
X99900Y73000D01*
X98900D01*
X97900Y74000D01*
X96900Y73000D01*
X95900D01*
X96900Y72000D01*
X95900Y71000D01*
X96900D01*
X97900Y70000D01*
X90900Y59600D02*
X91900Y61600D01*
X90900Y63600D01*
X92900Y62600D01*
X94900Y63600D01*
X93900Y61600D01*
X94900Y59600D01*
X92900Y60600D01*
X90900Y59600D01*
X87400Y62300D02*
X88400Y64300D01*
X87400Y66300D01*
X89400Y65300D01*
X91400Y66300D01*
X90400Y64300D01*
X91400Y62300D01*
X89400Y63300D01*
X87400Y62300D01*
X43764Y168451D02*
X44765Y169451D01*
X45764D01*
X44765Y170451D01*
X45764Y171451D01*
X44765D01*
X43764Y172451D01*
X42764Y171451D01*
X41765D01*
X42764Y170451D01*
X41765Y169451D01*
X42764D01*
X43764Y168451D01*
X130300Y174600D02*
X131300Y175600D01*
X132300D01*
X131300Y176600D01*
X132300Y177600D01*
X131300D01*
X130300Y178600D01*
X129300Y177600D01*
X128300D01*
X129300Y176600D01*
X128300Y175600D01*
X129300D01*
X130300Y174600D01*
X164200Y56900D02*
X165200Y57900D01*
X166200D01*
X165200Y58900D01*
X166200Y59900D01*
X165200D01*
X164200Y60900D01*
X163200Y59900D01*
X162200D01*
X163200Y58900D01*
X162200Y57900D01*
X163200D01*
X164200Y56900D01*
X28400Y63800D02*
X29400Y65800D01*
X28400Y67800D01*
X30400Y66800D01*
X32400Y67800D01*
X31400Y65800D01*
X32400Y63800D01*
X30400Y64800D01*
X28400Y63800D01*
X145800Y64100D02*
X146800Y66100D01*
X145800Y68100D01*
X147800Y67100D01*
X149800Y68100D01*
X148800Y66100D01*
X149800Y64100D01*
X147800Y65100D01*
X145800Y64100D01*
Y88100D02*
X146800Y90100D01*
X145800Y92100D01*
X147800Y91100D01*
X149800Y92100D01*
X148800Y90100D01*
X149800Y88100D01*
X147800Y89100D01*
X145800Y88100D01*
Y80100D02*
X146800Y82100D01*
X145800Y84100D01*
X147800Y83100D01*
X149800Y84100D01*
X148800Y82100D01*
X149800Y80100D01*
X147800Y81100D01*
X145800Y80100D01*
X136300Y88100D02*
X137300Y90100D01*
X136300Y92100D01*
X138300Y91100D01*
X140300Y92100D01*
X139300Y90100D01*
X140300Y88100D01*
X138300Y89100D01*
X136300Y88100D01*
Y96100D02*
X137300Y98100D01*
X136300Y100100D01*
X138300Y99100D01*
X140300Y100100D01*
X139300Y98100D01*
X140300Y96100D01*
X138300Y97100D01*
X136300Y96100D01*
Y104100D02*
X137300Y106100D01*
X136300Y108100D01*
X138300Y107100D01*
X140300Y108100D01*
X139300Y106100D01*
X140300Y104100D01*
X138300Y105100D01*
X136300Y104100D01*
X145800Y96100D02*
X146800Y98100D01*
X145800Y100100D01*
X147800Y99100D01*
X149800Y100100D01*
X148800Y98100D01*
X149800Y96100D01*
X147800Y97100D01*
X145800Y96100D01*
Y72100D02*
X146800Y74100D01*
X145800Y76100D01*
X147800Y75100D01*
X149800Y76100D01*
X148800Y74100D01*
X149800Y72100D01*
X147800Y73100D01*
X145800Y72100D01*
X126800Y88100D02*
X127800Y90100D01*
X126800Y92100D01*
X128800Y91100D01*
X130800Y92100D01*
X129800Y90100D01*
X130800Y88100D01*
X128800Y89100D01*
X126800Y88100D01*
Y96100D02*
X127800Y98100D01*
X126800Y100100D01*
X128800Y99100D01*
X130800Y100100D01*
X129800Y98100D01*
X130800Y96100D01*
X128800Y97100D01*
X126800Y96100D01*
Y104100D02*
X127800Y106100D01*
X126800Y108100D01*
X128800Y107100D01*
X130800Y108100D01*
X129800Y106100D01*
X130800Y104100D01*
X128800Y105100D01*
X126800Y104100D01*
X47400Y79800D02*
X48400Y81800D01*
X47400Y83800D01*
X49400Y82800D01*
X51400Y83800D01*
X50400Y81800D01*
X51400Y79800D01*
X49400Y80800D01*
X47400Y79800D01*
X37900D02*
X38900Y81800D01*
X37900Y83800D01*
X39900Y82800D01*
X41900Y83800D01*
X40900Y81800D01*
X41900Y79800D01*
X39900Y80800D01*
X37900Y79800D01*
Y87800D02*
X38900Y89800D01*
X37900Y91800D01*
X39900Y90800D01*
X41900Y91800D01*
X40900Y89800D01*
X41900Y87800D01*
X39900Y88800D01*
X37900Y87800D01*
Y71800D02*
X38900Y73800D01*
X37900Y75800D01*
X39900Y74800D01*
X41900Y75800D01*
X40900Y73800D01*
X41900Y71800D01*
X39900Y72800D01*
X37900Y71800D01*
X47400Y103800D02*
X48400Y105800D01*
X47400Y107800D01*
X49400Y106800D01*
X51400Y107800D01*
X50400Y105800D01*
X51400Y103800D01*
X49400Y104800D01*
X47400Y103800D01*
Y63800D02*
X48400Y65800D01*
X47400Y67800D01*
X49400Y66800D01*
X51400Y67800D01*
X50400Y65800D01*
X51400Y63800D01*
X49400Y64800D01*
X47400Y63800D01*
Y71800D02*
X48400Y73800D01*
X47400Y75800D01*
X49400Y74800D01*
X51400Y75800D01*
X50400Y73800D01*
X51400Y71800D01*
X49400Y72800D01*
X47400Y71800D01*
Y87800D02*
X48400Y89800D01*
X47400Y91800D01*
X49400Y90800D01*
X51400Y91800D01*
X50400Y89800D01*
X51400Y87800D01*
X49400Y88800D01*
X47400Y87800D01*
X37900Y63800D02*
X38900Y65800D01*
X37900Y67800D01*
X39900Y66800D01*
X41900Y67800D01*
X40900Y65800D01*
X41900Y63800D01*
X39900Y64800D01*
X37900Y63800D01*
X28400Y71800D02*
X29400Y73800D01*
X28400Y75800D01*
X30400Y74800D01*
X32400Y75800D01*
X31400Y73800D01*
X32400Y71800D01*
X30400Y72800D01*
X28400Y71800D01*
Y79800D02*
X29400Y81800D01*
X28400Y83800D01*
X30400Y82800D01*
X32400Y83800D01*
X31400Y81800D01*
X32400Y79800D01*
X30400Y80800D01*
X28400Y79800D01*
Y87800D02*
X29400Y89800D01*
X28400Y91800D01*
X30400Y90800D01*
X32400Y91800D01*
X31400Y89800D01*
X32400Y87800D01*
X30400Y88800D01*
X28400Y87800D01*
Y103800D02*
X29400Y105800D01*
X28400Y107800D01*
X30400Y106800D01*
X32400Y107800D01*
X31400Y105800D01*
X32400Y103800D01*
X30400Y104800D01*
X28400Y103800D01*
X37900D02*
X38900Y105800D01*
X37900Y107800D01*
X39900Y106800D01*
X41900Y107800D01*
X40900Y105800D01*
X41900Y103800D01*
X39900Y104800D01*
X37900Y103800D01*
D61*
X151500Y16000D02*
X151271Y16929D01*
X150636Y17646D01*
X149741Y17985D01*
X148791Y17870D01*
X148003Y17326D01*
X147558Y16479D01*
Y15521D01*
X148003Y14674D01*
X148791Y14130D01*
X149741Y14015D01*
X150636Y14354D01*
X151271Y15071D01*
X151500Y16000D01*
X141500D02*
X141271Y16929D01*
X140636Y17646D01*
X139741Y17985D01*
X138791Y17870D01*
X138003Y17326D01*
X137558Y16479D01*
Y15521D01*
X138003Y14674D01*
X138791Y14130D01*
X139741Y14015D01*
X140636Y14354D01*
X141271Y15071D01*
X141500Y16000D01*
X41600Y19700D02*
X41371Y20629D01*
X40736Y21346D01*
X39841Y21685D01*
X38891Y21570D01*
X38103Y21026D01*
X37658Y20179D01*
Y19221D01*
X38103Y18374D01*
X38891Y17830D01*
X39841Y17715D01*
X40736Y18054D01*
X41371Y18771D01*
X41600Y19700D01*
X31600D02*
X31371Y20629D01*
X30736Y21346D01*
X29841Y21685D01*
X28891Y21570D01*
X28103Y21026D01*
X27658Y20179D01*
Y19221D01*
X28103Y18374D01*
X28891Y17830D01*
X29841Y17715D01*
X30736Y18054D01*
X31371Y18771D01*
X31600Y19700D01*
X128200Y16000D02*
X127971Y16929D01*
X127336Y17646D01*
X126441Y17985D01*
X125491Y17870D01*
X124703Y17326D01*
X124258Y16478D01*
Y15521D01*
X124703Y14674D01*
X125491Y14130D01*
X126441Y14015D01*
X127336Y14354D01*
X127971Y15070D01*
X128200Y16000D01*
X118200D02*
X117971Y16929D01*
X117336Y17646D01*
X116441Y17985D01*
X115491Y17870D01*
X114703Y17326D01*
X114258Y16478D01*
Y15521D01*
X114703Y14674D01*
X115491Y14130D01*
X116441Y14015D01*
X117336Y14354D01*
X117971Y15070D01*
X118200Y16000D01*
M02*
