G04*
G04 #@! TF.GenerationSoftware,Altium Limited,Altium Designer,23.10.1 (27)*
G04*
G04 Layer_Color=8388736*
%FSLAX25Y25*%
%MOIN*%
G70*
G04*
G04 #@! TF.SameCoordinates,BE9A1C7D-6EBF-47CB-866B-E429BD166B13*
G04*
G04*
G04 #@! TF.FilePolarity,Positive*
G04*
G01*
G75*
%ADD12C,0.00787*%
%ADD58C,0.00394*%
D12*
X97572Y185744D02*
X125564D01*
Y161256D02*
Y185744D01*
X97572Y161256D02*
X125564D01*
X97572D02*
Y185744D01*
X39296Y129156D02*
Y153644D01*
X11304D02*
X39296D01*
X11304Y129156D02*
Y153644D01*
Y129156D02*
X39296D01*
X127492Y26325D02*
Y29475D01*
Y26325D02*
X133792D01*
Y29475D01*
X127492D02*
X133792D01*
X119834Y25442D02*
Y30757D01*
X111566D02*
X119834D01*
X111566Y25442D02*
Y30757D01*
Y25442D02*
X119834D01*
X52466Y10543D02*
Y15857D01*
Y10543D02*
X60734D01*
Y15857D01*
X52466D02*
X60734D01*
X159953Y55301D02*
Y117899D01*
X116647D02*
X159953D01*
X116647Y55301D02*
Y117899D01*
Y55301D02*
X159953D01*
X132769Y48254D02*
X141431D01*
Y42546D02*
Y48254D01*
X132769Y42546D02*
X141431D01*
X132769D02*
Y48254D01*
X34469D02*
X43131D01*
Y42546D02*
Y48254D01*
X34469Y42546D02*
X43131D01*
X34469D02*
Y48254D01*
X17747Y55501D02*
X61054D01*
X17747D02*
Y118099D01*
X61054D01*
Y55501D02*
Y118099D01*
X166496Y161256D02*
Y185744D01*
X138504D02*
X166496D01*
X138504Y161256D02*
Y185744D01*
Y161256D02*
X166496D01*
X79828Y161156D02*
Y185644D01*
X51836D02*
X79828D01*
X51836Y161156D02*
Y185644D01*
Y161156D02*
X79828D01*
X10904Y185444D02*
X38896D01*
Y160956D02*
Y185444D01*
X10904Y160956D02*
X38896D01*
X10904D02*
Y185444D01*
X51703Y21025D02*
Y24175D01*
Y21025D02*
X58002D01*
Y24175D01*
X51703D02*
X58002D01*
X63439Y42763D02*
X68361D01*
Y50637D01*
X63439D02*
X68361D01*
X63439Y42763D02*
Y50637D01*
X108939Y49737D02*
X113861D01*
X108939Y41863D02*
Y49737D01*
Y41863D02*
X113861D01*
Y49737D01*
X138704Y129156D02*
Y153644D01*
Y129156D02*
X166696D01*
Y153644D01*
X138704D02*
X166696D01*
X125996Y129056D02*
Y153544D01*
X98004D02*
X125996D01*
X98004Y129056D02*
Y153544D01*
Y129056D02*
X125996D01*
X52004Y129256D02*
Y153744D01*
Y129256D02*
X79996D01*
Y153744D01*
X52004D02*
X79996D01*
X87991Y39225D02*
Y42375D01*
Y39225D02*
X94291D01*
Y42375D01*
X87991D02*
X94291D01*
X87850Y82625D02*
X94150D01*
X87850D02*
Y85775D01*
X94150D01*
Y82625D02*
Y85775D01*
X85094Y68606D02*
X96905D01*
X85094Y56795D02*
Y68606D01*
Y56795D02*
X96905D01*
Y68606D01*
D58*
X134500Y11000D02*
X154500D01*
X134500D02*
Y21000D01*
X154500D01*
Y11000D02*
Y21000D01*
X73862Y12280D02*
X75836Y12006D01*
X75831Y12004D02*
Y31886D01*
X73862Y9137D02*
X75831Y9445D01*
X73862Y9137D02*
Y12280D01*
X103390Y4327D02*
Y27555D01*
Y29327D02*
Y31886D01*
X75831Y4327D02*
X103390D01*
X75831D02*
Y9445D01*
Y31886D02*
X103390D01*
X105358Y27358D02*
Y29524D01*
X103390Y29327D02*
X105359Y29520D01*
X103390Y27555D02*
X105359Y27362D01*
X24600Y14700D02*
X44600D01*
X24600D02*
Y24700D01*
X44600D01*
Y14700D02*
Y24700D01*
X111200Y21000D02*
X131200D01*
Y11000D02*
Y21000D01*
X111200Y11000D02*
X131200D01*
X111200D02*
Y21000D01*
X128885Y213494D02*
X130858Y213220D01*
X128890Y193614D02*
Y213496D01*
Y216055D02*
X130858Y216363D01*
Y213220D02*
Y216363D01*
X101331Y197945D02*
Y221173D01*
Y193614D02*
Y196173D01*
Y221173D02*
X128890D01*
Y216055D02*
Y221173D01*
X101331Y193614D02*
X128890D01*
X99362Y195976D02*
Y198142D01*
X99362Y195980D02*
X101331Y196173D01*
X99362Y198138D02*
X101331Y197945D01*
X80885Y213494D02*
X82858Y213220D01*
X80890Y193614D02*
Y213496D01*
Y216055D02*
X82858Y216363D01*
Y213220D02*
Y216363D01*
X53331Y197945D02*
Y221173D01*
Y193614D02*
Y196173D01*
Y221173D02*
X80890D01*
Y216055D02*
Y221173D01*
X53331Y193614D02*
X80890D01*
X51362Y195976D02*
Y198142D01*
X51362Y195980D02*
X53331Y196173D01*
X51362Y198138D02*
X53331Y197945D01*
M02*
