G04*
G04 #@! TF.GenerationSoftware,Altium Limited,Altium Designer,23.10.1 (27)*
G04*
G04 Layer_Color=32768*
%FSLAX25Y25*%
%MOIN*%
G70*
G04*
G04 #@! TF.SameCoordinates,BE9A1C7D-6EBF-47CB-866B-E429BD166B13*
G04*
G04*
G04 #@! TF.FilePolarity,Positive*
G04*
G01*
G75*
%ADD12C,0.00787*%
%ADD59C,0.00197*%
D12*
X95170Y186138D02*
X127965D01*
Y160862D02*
Y186138D01*
X95170Y160862D02*
X127965D01*
X95170D02*
Y186138D01*
X41698Y128762D02*
Y154038D01*
X8902D02*
X41698D01*
X8902Y128762D02*
Y154038D01*
Y128762D02*
X41698D01*
X124910Y25120D02*
Y30680D01*
Y25120D02*
X136375D01*
Y30680D01*
X124910D02*
X136375D01*
X122590Y25049D02*
Y31151D01*
X108810D02*
X122590D01*
X108810Y25049D02*
Y31151D01*
Y25049D02*
X122590D01*
X49710Y10149D02*
Y16251D01*
Y10149D02*
X63490D01*
Y16251D01*
X49710D02*
X63490D01*
X170888Y53332D02*
Y119868D01*
X105711D02*
X170888D01*
X105711Y53332D02*
Y119868D01*
Y53332D02*
X170888D01*
X130801Y49534D02*
X143399D01*
Y41266D02*
Y49534D01*
X130801Y41266D02*
X143399D01*
X130801D02*
Y49534D01*
X32501D02*
X45099D01*
Y41266D02*
Y49534D01*
X32501Y41266D02*
X45099D01*
X32501D02*
Y49534D01*
X6812Y53532D02*
X71988D01*
X6812D02*
Y120068D01*
X71988D01*
Y53532D02*
Y120068D01*
X168898Y160862D02*
Y186138D01*
X136102D02*
X168898D01*
X136102Y160862D02*
Y186138D01*
Y160862D02*
X168898D01*
X82230Y160762D02*
Y186038D01*
X49435D02*
X82230D01*
X49435Y160762D02*
Y186038D01*
Y160762D02*
X82230D01*
X8502Y185838D02*
X41298D01*
Y160562D02*
Y185838D01*
X8502Y160562D02*
X41298D01*
X8502D02*
Y185838D01*
X49120Y19820D02*
Y25380D01*
Y19820D02*
X60585D01*
Y25380D01*
X49120D02*
X60585D01*
X60868Y38223D02*
X70932D01*
Y55177D01*
X60868D02*
X70932D01*
X60868Y38223D02*
Y55177D01*
X106368Y54277D02*
X116432D01*
X106368Y37323D02*
Y54277D01*
Y37323D02*
X116432D01*
Y54277D01*
X136302Y128762D02*
Y154038D01*
Y128762D02*
X169098D01*
Y154038D01*
X136302D02*
X169098D01*
X128398Y128662D02*
Y153938D01*
X95602D02*
X128398D01*
X95602Y128662D02*
Y153938D01*
Y128662D02*
X128398D01*
X49602Y128862D02*
Y154138D01*
Y128862D02*
X82398D01*
Y154138D01*
X49602D02*
X82398D01*
X83637Y36839D02*
Y44761D01*
Y36839D02*
X98645D01*
Y44761D01*
X83637D02*
X98645D01*
X83496Y80239D02*
X98504D01*
X83496D02*
Y88161D01*
X98504D01*
Y80239D02*
Y88161D01*
X83126Y76791D02*
X98874D01*
X83126Y48609D02*
Y76791D01*
Y48609D02*
X98874D01*
Y76791D01*
D59*
X133122Y9917D02*
X155878D01*
X133122D02*
Y22083D01*
X155878D01*
Y9917D02*
Y22083D01*
X144500Y14032D02*
Y17969D01*
X142532Y16000D02*
X146469D01*
X73075Y32673D02*
X106146D01*
Y3539D02*
Y32673D01*
X73075Y3539D02*
X106146D01*
X73075D02*
Y32673D01*
X23222Y13617D02*
X45978D01*
X23222D02*
Y25783D01*
X45978D01*
Y13617D02*
Y25783D01*
X34600Y17732D02*
Y21669D01*
X32632Y19700D02*
X36569D01*
X109822Y22083D02*
X132578D01*
Y9917D02*
Y22083D01*
X109822Y9917D02*
X132578D01*
X109822D02*
Y22083D01*
X121200Y14031D02*
Y17968D01*
X119231Y16000D02*
X123169D01*
X98575Y192827D02*
X131646D01*
X98575D02*
Y221961D01*
X131646D01*
Y192827D02*
Y221961D01*
X50575Y192827D02*
X83646D01*
X50575D02*
Y221961D01*
X83646D01*
Y192827D02*
Y221961D01*
M02*
